<?xml version="1.0" encoding="UTF-8"?>
<svg xmlns="http://www.w3.org/2000/svg" viewBox="0 0 100 100">
  <defs>
    <style>
      .cls-1 {
        fill: #FFF;
        fill-rule: evenodd;
      }
    </style>
  </defs>
  <path class="cls-1" d="m61.3,95.65c0-1.52.07-6.47.07-12.64,0-4.34-1.44-7.08-3.1-8.53,10.21-1.14,20.87-5.03,20.87-22.7,0-5.03-1.74-9.14-4.69-12.34.45-1.14,2.04-5.87-.45-12.19,0,0-3.86-1.22-12.55,4.72-3.63-.99-7.56-1.52-11.42-1.52-3.86,0-7.7.52-11.42,1.52-8.69-5.94-12.55-4.72-12.55-4.72-2.5,6.32-.91,11.05-.45,12.19-2.87,3.2-4.69,7.31-4.69,12.34,0,17.67,10.66,21.63,20.79,22.7-1.29,1.14-2.5,3.2-2.87,6.17-2.65,1.22-9.22,3.2-13.31-3.81,0,0-2.42-4.42-7.03-4.72,0,0-4.46,0-.3,2.82,0,0,3.02,1.37,5.07,6.7,0,0,2.65,8.23,15.35,5.48,0,3.81.07,7.47.07,8.53,0,.98-.56,2.1-1.96,2.26,4.18,1.35,8.63,2.09,13.26,2.09s9.08-.74,13.26-2.09c-1.4-.16-1.96-1.28-1.96-2.26Z"/>
</svg>
