<?xml version="1.0" encoding="UTF-8"?>
<svg xmlns="http://www.w3.org/2000/svg" viewBox="0 0 188 188">
  <defs>
    <style>
      .cls-1 {
        fill: #fff;
      }

      .cls-2 {
        fill: none;
        stroke: #fff;
        stroke-miterlimit: 10;
        stroke-width: 2;
      }
    </style>
  </defs>
  <circle class="cls-2" cx="93" cy="95.02" r="90.98"/>
  <path class="cls-1" d="m93,0C41.64,0,0,41.71,0,93.16c0,24.2,9.21,46.24,24.32,62.81v-23.26h3.31v-6.77l8.37-2.77,8.37-2.77v12.31h3.31v41.81c.94.52,1.88,1.04,2.84,1.53v-19.94h4.04v-5.85h4.87v-48.74h5.26v-9.89h3.31v-11.17h2.34v-21.45h2.04v-3.51h2.68v-14.43h1.07v14.43h2.68v3.51h2.04v21.45h2.34v11.17h3.31v9.89h5.26v48.74h4.87v5.85h4.04v29.9c.95-.08,1.9-.17,2.84-.28v-120.02h7.39v-4.08h7.79v4.08h3.11v116.06c.95-.31,1.9-.63,2.84-.97v-101.98h3.5v-4.09h6.62v4.09h8.81v92.56c.96-.62,1.9-1.26,2.84-1.92v-73.79h1.95v-2.51l4.67-1.25,4.67-1.25v69.46c17.47-16.94,28.34-40.67,28.34-66.95C186,41.71,144.36,0,93,0Z"/>
</svg>
