<?xml version="1.0" encoding="UTF-8"?>
<svg id="Layer_1" data-name="Layer 1" xmlns="http://www.w3.org/2000/svg" xmlns:xlink="http://www.w3.org/1999/xlink" viewBox="0 0 518 518">
  <defs>
    <style>
      .cls-1 {
        fill: #fff;
      }

      .cls-2 {
        fill: url(#_Безымянный_градиент);
      }

      .cls-3 {
        fill: none;
      }

      .cls-4 {
        mask: url(#mask);
      }
    </style>
    <mask id="mask" x="0" y="0" width="518" height="518" maskUnits="userSpaceOnUse">
      <g id="gmask">
        <g>
          <path class="cls-1" d="m119,0c3.8662,0,7,3.134,7,7s-3.1338,7-7,7-7-3.1338-7-7,3.134-7,7-7Z"/>
          <path class="cls-1" d="m161,0c3.8662,0,7,3.134,7,7s-3.1338,7-7,7-7-3.1338-7-7,3.134-7,7-7Z"/>
          <path class="cls-1" d="m203,0c3.8662,0,7,3.134,7,7s-3.1338,7-7,7-7-3.1338-7-7,3.134-7,7-7Z"/>
          <path class="cls-1" d="m259,0c3.8662,0,7,3.134,7,7s-3.1338,7-7,7-7-3.1338-7-7,3.134-7,7-7Z"/>
          <path class="cls-1" d="m301,0c3.8662,0,7,3.134,7,7s-3.1338,7-7,7-7-3.1338-7-7,3.134-7,7-7Z"/>
          <path class="cls-1" d="m315,0c3.8662,0,7,3.134,7,7s-3.1338,7-7,7-7-3.1338-7-7,3.134-7,7-7Z"/>
          <path class="cls-1" d="m357,0c3.8662,0,7,3.134,7,7s-3.1338,7-7,7-7-3.1338-7-7,3.134-7,7-7Z"/>
          <path class="cls-1" d="m147,14c3.8662,0,7,3.134,7,7s-3.1338,7-7,7-7-3.1338-7-7,3.134-7,7-7Z"/>
          <path class="cls-1" d="m175,14c3.8662,0,7,3.134,7,7s-3.1338,7-7,7-7-3.1338-7-7,3.134-7,7-7Z"/>
          <path class="cls-1" d="m189,14c3.8662,0,7,3.134,7,7s-3.1338,7-7,7-7-3.1338-7-7,3.134-7,7-7Z"/>
          <path class="cls-1" d="m217,14c3.8662,0,7,3.134,7,7s-3.1338,7-7,7-7-3.1338-7-7,3.134-7,7-7Z"/>
          <path class="cls-1" d="m231,14c3.8662,0,7,3.134,7,7s-3.1338,7-7,7-7-3.1338-7-7,3.134-7,7-7Z"/>
          <path class="cls-1" d="m287,14c3.8662,0,7,3.134,7,7s-3.1338,7-7,7-7-3.1338-7-7,3.134-7,7-7Z"/>
          <path class="cls-1" d="m315,14c3.8662,0,7,3.134,7,7s-3.1338,7-7,7-7-3.1338-7-7,3.134-7,7-7Z"/>
          <path class="cls-1" d="m343,14c3.8662,0,7,3.134,7,7s-3.1338,7-7,7-7-3.1338-7-7,3.134-7,7-7Z"/>
          <path class="cls-1" d="m357,14c3.8662,0,7,3.134,7,7s-3.1338,7-7,7-7-3.1338-7-7,3.134-7,7-7Z"/>
          <path class="cls-1" d="m399,14c3.8662,0,7,3.134,7,7s-3.1338,7-7,7-7-3.1338-7-7,3.134-7,7-7Z"/>
          <path class="cls-1" d="m119,28c3.8662,0,7,3.134,7,7s-3.1338,7-7,7-7-3.1338-7-7,3.134-7,7-7Z"/>
          <path class="cls-1" d="m133,28c3.8662,0,7,3.134,7,7s-3.1338,7-7,7-7-3.1338-7-7,3.134-7,7-7Z"/>
          <path class="cls-1" d="m161,28c3.8662,0,7,3.134,7,7s-3.1338,7-7,7-7-3.1338-7-7,3.134-7,7-7Z"/>
          <path class="cls-1" d="m175,28c3.8662,0,7,3.134,7,7s-3.1338,7-7,7-7-3.1338-7-7,3.134-7,7-7Z"/>
          <path class="cls-1" d="m203,28c3.8662,0,7,3.134,7,7s-3.1338,7-7,7-7-3.1338-7-7,3.134-7,7-7Z"/>
          <path class="cls-1" d="m217,28c3.8662,0,7,3.134,7,7s-3.1338,7-7,7-7-3.1338-7-7,3.134-7,7-7Z"/>
          <path class="cls-1" d="m231,28c3.8662,0,7,3.134,7,7s-3.1338,7-7,7-7-3.1338-7-7,3.134-7,7-7Z"/>
          <path class="cls-1" d="m245,28c3.8662,0,7,3.134,7,7s-3.1338,7-7,7-7-3.1338-7-7,3.134-7,7-7Z"/>
          <path class="cls-1" d="m273,28c3.8662,0,7,3.134,7,7s-3.1338,7-7,7-7-3.1338-7-7,3.134-7,7-7Z"/>
          <path class="cls-1" d="m287,28c3.8662,0,7,3.134,7,7s-3.1338,7-7,7-7-3.1338-7-7,3.134-7,7-7Z"/>
          <path class="cls-1" d="m301,28c3.8662,0,7,3.134,7,7s-3.1338,7-7,7-7-3.1338-7-7,3.134-7,7-7Z"/>
          <path class="cls-1" d="m357,28c3.8662,0,7,3.134,7,7s-3.1338,7-7,7-7-3.1338-7-7,3.134-7,7-7Z"/>
          <path class="cls-1" d="m385,28c3.8662,0,7,3.134,7,7s-3.1338,7-7,7-7-3.1338-7-7,3.134-7,7-7Z"/>
          <path class="cls-1" d="m217,42c3.8662,0,7,3.134,7,7s-3.1338,7-7,7-7-3.1338-7-7,3.134-7,7-7Z"/>
          <path class="cls-1" d="m245,42c3.8662,0,7,3.134,7,7s-3.1338,7-7,7-7-3.1338-7-7,3.134-7,7-7Z"/>
          <path class="cls-1" d="m259,42c3.8662,0,7,3.134,7,7s-3.1338,7-7,7-7-3.1338-7-7,3.134-7,7-7Z"/>
          <path class="cls-1" d="m273,42c3.8662,0,7,3.134,7,7s-3.1338,7-7,7-7-3.1338-7-7,3.134-7,7-7Z"/>
          <path class="cls-1" d="m301,42c3.8662,0,7,3.134,7,7s-3.1338,7-7,7-7-3.1338-7-7,3.134-7,7-7Z"/>
          <path class="cls-1" d="m315,42c3.8662,0,7,3.134,7,7s-3.1338,7-7,7-7-3.1338-7-7,3.134-7,7-7Z"/>
          <path class="cls-1" d="m329,42c3.8662,0,7,3.134,7,7s-3.1338,7-7,7-7-3.1338-7-7,3.134-7,7-7Z"/>
          <path class="cls-1" d="m357,42c3.8662,0,7,3.134,7,7s-3.1338,7-7,7-7-3.1338-7-7,3.134-7,7-7Z"/>
          <path class="cls-1" d="m371,42c3.8662,0,7,3.134,7,7s-3.1338,7-7,7-7-3.1338-7-7,3.134-7,7-7Z"/>
          <path class="cls-1" d="m147,56c3.8662,0,7,3.134,7,7s-3.1338,7-7,7-7-3.1338-7-7,3.134-7,7-7Z"/>
          <path class="cls-1" d="m161,56c3.8662,0,7,3.134,7,7s-3.1338,7-7,7-7-3.1338-7-7,3.134-7,7-7Z"/>
          <path class="cls-1" d="m175,56c3.8662,0,7,3.134,7,7s-3.1338,7-7,7-7-3.1338-7-7,3.134-7,7-7Z"/>
          <path class="cls-1" d="m203,56c3.8662,0,7,3.134,7,7s-3.1338,7-7,7-7-3.1338-7-7,3.134-7,7-7Z"/>
          <path class="cls-1" d="m217,56c3.8662,0,7,3.134,7,7s-3.1338,7-7,7-7-3.1338-7-7,3.134-7,7-7Z"/>
          <path class="cls-1" d="m245,56c3.8662,0,7,3.134,7,7s-3.1338,7-7,7-7-3.1338-7-7,3.134-7,7-7Z"/>
          <path class="cls-1" d="m301,56c3.8662,0,7,3.134,7,7s-3.1338,7-7,7-7-3.1338-7-7,3.134-7,7-7Z"/>
          <path class="cls-1" d="m315,56c3.8662,0,7,3.134,7,7s-3.1338,7-7,7-7-3.1338-7-7,3.134-7,7-7Z"/>
          <path class="cls-1" d="m357,56c3.8662,0,7,3.134,7,7s-3.1338,7-7,7-7-3.1338-7-7,3.134-7,7-7Z"/>
          <path class="cls-1" d="m371,56c3.8662,0,7,3.134,7,7s-3.1338,7-7,7-7-3.1338-7-7,3.134-7,7-7Z"/>
          <path class="cls-1" d="m119,70c3.8662,0,7,3.134,7,7s-3.1338,7-7,7-7-3.1338-7-7,3.134-7,7-7Z"/>
          <path class="cls-1" d="m161,70c3.8662,0,7,3.134,7,7s-3.1338,7-7,7-7-3.1338-7-7,3.134-7,7-7Z"/>
          <path class="cls-1" d="m203,70c3.8662,0,7,3.134,7,7s-3.1338,7-7,7-7-3.1338-7-7,3.134-7,7-7Z"/>
          <path class="cls-1" d="m259,70c3.8662,0,7,3.134,7,7s-3.1338,7-7,7-7-3.1338-7-7,3.134-7,7-7Z"/>
          <path class="cls-1" d="m301,70c3.8662,0,7,3.134,7,7s-3.1338,7-7,7-7-3.1338-7-7,3.134-7,7-7Z"/>
          <path class="cls-1" d="m315,70c3.8662,0,7,3.134,7,7s-3.1338,7-7,7-7-3.1338-7-7,3.134-7,7-7Z"/>
          <path class="cls-1" d="m357,70c3.8662,0,7,3.134,7,7s-3.1338,7-7,7-7-3.1338-7-7,3.134-7,7-7Z"/>
          <path class="cls-1" d="m119,84c3.8662,0,7,3.134,7,7s-3.1338,7-7,7-7-3.1338-7-7,3.134-7,7-7Z"/>
          <path class="cls-1" d="m147,84c3.8662,0,7,3.134,7,7s-3.1338,7-7,7-7-3.1338-7-7,3.134-7,7-7Z"/>
          <path class="cls-1" d="m175,84c3.8662,0,7,3.134,7,7s-3.1338,7-7,7-7-3.1338-7-7,3.134-7,7-7Z"/>
          <path class="cls-1" d="m203,84c3.8662,0,7,3.134,7,7s-3.1338,7-7,7-7-3.1338-7-7,3.134-7,7-7Z"/>
          <path class="cls-1" d="m231,84c3.8662,0,7,3.134,7,7s-3.1338,7-7,7-7-3.1338-7-7,3.134-7,7-7Z"/>
          <path class="cls-1" d="m259,84c3.8662,0,7,3.134,7,7s-3.1338,7-7,7-7-3.1338-7-7,3.134-7,7-7Z"/>
          <path class="cls-1" d="m287,84c3.8662,0,7,3.134,7,7s-3.1338,7-7,7-7-3.1338-7-7,3.134-7,7-7Z"/>
          <path class="cls-1" d="m315,84c3.8662,0,7,3.134,7,7s-3.1338,7-7,7-7-3.1338-7-7,3.134-7,7-7Z"/>
          <path class="cls-1" d="m343,84c3.8662,0,7,3.134,7,7s-3.1338,7-7,7-7-3.1338-7-7,3.134-7,7-7Z"/>
          <path class="cls-1" d="m371,84c3.8662,0,7,3.134,7,7s-3.1338,7-7,7-7-3.1338-7-7,3.134-7,7-7Z"/>
          <path class="cls-1" d="m399,84c3.8662,0,7,3.134,7,7s-3.1338,7-7,7-7-3.1338-7-7,3.134-7,7-7Z"/>
          <path class="cls-1" d="m133,98c3.8662,0,7,3.134,7,7s-3.1338,7-7,7-7-3.1338-7-7,3.134-7,7-7Z"/>
          <path class="cls-1" d="m161,98c3.8662,0,7,3.134,7,7s-3.1338,7-7,7-7-3.1338-7-7,3.134-7,7-7Z"/>
          <path class="cls-1" d="m175,98c3.8662,0,7,3.134,7,7s-3.1338,7-7,7-7-3.1338-7-7,3.134-7,7-7Z"/>
          <path class="cls-1" d="m189,98c3.8662,0,7,3.134,7,7s-3.1338,7-7,7-7-3.1338-7-7,3.134-7,7-7Z"/>
          <path class="cls-1" d="m217,98c3.8662,0,7,3.134,7,7s-3.1338,7-7,7-7-3.1338-7-7,3.134-7,7-7Z"/>
          <path class="cls-1" d="m259,98c3.8662,0,7,3.134,7,7s-3.1338,7-7,7-7-3.1338-7-7,3.134-7,7-7Z"/>
          <path class="cls-1" d="m273,98c3.8662,0,7,3.134,7,7s-3.1338,7-7,7-7-3.1338-7-7,3.134-7,7-7Z"/>
          <path class="cls-1" d="m315,98c3.8662,0,7,3.134,7,7s-3.1338,7-7,7-7-3.1338-7-7,3.134-7,7-7Z"/>
          <path class="cls-1" d="m329,98c3.8662,0,7,3.134,7,7s-3.1338,7-7,7-7-3.1338-7-7,3.134-7,7-7Z"/>
          <path class="cls-1" d="m385,98c3.8662,0,7,3.134,7,7s-3.1338,7-7,7-7-3.1338-7-7,3.134-7,7-7Z"/>
          <path class="cls-1" d="m399,98c3.8662,0,7,3.134,7,7s-3.1338,7-7,7-7-3.1338-7-7,3.134-7,7-7Z"/>
          <path class="cls-1" d="m7,112c3.8662,0,7,3.134,7,7s-3.1338,7-7,7-7-3.1338-7-7,3.134-7,7-7Z"/>
          <path class="cls-1" d="m35,112c3.8662,0,7,3.134,7,7s-3.1338,7-7,7-7-3.1338-7-7,3.134-7,7-7Z"/>
          <path class="cls-1" d="m91,112c3.8662,0,7,3.134,7,7s-3.1338,7-7,7-7-3.1338-7-7,3.134-7,7-7Z"/>
          <path class="cls-1" d="m105,112c3.8662,0,7,3.134,7,7s-3.1338,7-7,7-7-3.1338-7-7,3.134-7,7-7Z"/>
          <path class="cls-1" d="m147,112c3.8662,0,7,3.134,7,7s-3.1338,7-7,7-7-3.1338-7-7,3.134-7,7-7Z"/>
          <path class="cls-1" d="m161,112c3.8662,0,7,3.134,7,7s-3.1338,7-7,7-7-3.1338-7-7,3.134-7,7-7Z"/>
          <path class="cls-1" d="m273,112c3.8662,0,7,3.134,7,7s-3.1338,7-7,7-7-3.1338-7-7,3.134-7,7-7Z"/>
          <path class="cls-1" d="m287,112c3.8662,0,7,3.134,7,7s-3.1338,7-7,7-7-3.1338-7-7,3.134-7,7-7Z"/>
          <path class="cls-1" d="m329,112c3.8662,0,7,3.134,7,7s-3.1338,7-7,7-7-3.1338-7-7,3.134-7,7-7Z"/>
          <path class="cls-1" d="m343,112c3.8662,0,7,3.134,7,7s-3.1338,7-7,7-7-3.1338-7-7,3.134-7,7-7Z"/>
          <path class="cls-1" d="m371,112c3.8662,0,7,3.134,7,7s-3.1338,7-7,7-7-3.1338-7-7,3.134-7,7-7Z"/>
          <path class="cls-1" d="m399,112c3.8662,0,7,3.134,7,7s-3.1338,7-7,7-7-3.1338-7-7,3.134-7,7-7Z"/>
          <path class="cls-1" d="m441,112c3.8662,0,7,3.134,7,7s-3.1338,7-7,7-7-3.1338-7-7,3.134-7,7-7Z"/>
          <path class="cls-1" d="m483,112c3.8662,0,7,3.134,7,7s-3.1338,7-7,7-7-3.1338-7-7,3.134-7,7-7Z"/>
          <path class="cls-1" d="m511,112c3.8662,0,7,3.134,7,7s-3.1338,7-7,7-7-3.1338-7-7,3.134-7,7-7Z"/>
          <path class="cls-1" d="m21,126c3.8662,0,7,3.134,7,7s-3.1338,7-7,7-7-3.1338-7-7,3.134-7,7-7Z"/>
          <path class="cls-1" d="m35,126c3.8662,0,7,3.134,7,7s-3.1338,7-7,7-7-3.1338-7-7,3.134-7,7-7Z"/>
          <path class="cls-1" d="m49,126c3.8662,0,7,3.134,7,7s-3.1338,7-7,7-7-3.1338-7-7,3.134-7,7-7Z"/>
          <path class="cls-1" d="m63,126c3.8662,0,7,3.134,7,7s-3.1338,7-7,7-7-3.1338-7-7,3.134-7,7-7Z"/>
          <path class="cls-1" d="m105,126c3.8662,0,7,3.134,7,7s-3.1338,7-7,7-7-3.1338-7-7,3.134-7,7-7Z"/>
          <path class="cls-1" d="m119,126c3.8662,0,7,3.134,7,7s-3.1338,7-7,7-7-3.1338-7-7,3.134-7,7-7Z"/>
          <path class="cls-1" d="m133,126c3.8662,0,7,3.134,7,7s-3.1338,7-7,7-7-3.1338-7-7,3.134-7,7-7Z"/>
          <path class="cls-1" d="m161,126c3.8662,0,7,3.134,7,7s-3.1338,7-7,7-7-3.1338-7-7,3.134-7,7-7Z"/>
          <path class="cls-1" d="m203,126c3.8662,0,7,3.134,7,7s-3.1338,7-7,7-7-3.1338-7-7,3.134-7,7-7Z"/>
          <path class="cls-1" d="m259,126c3.8662,0,7,3.134,7,7s-3.1338,7-7,7-7-3.1338-7-7,3.134-7,7-7Z"/>
          <path class="cls-1" d="m273,126c3.8662,0,7,3.134,7,7s-3.1338,7-7,7-7-3.1338-7-7,3.134-7,7-7Z"/>
          <path class="cls-1" d="m287,126c3.8662,0,7,3.134,7,7s-3.1338,7-7,7-7-3.1338-7-7,3.134-7,7-7Z"/>
          <path class="cls-1" d="m329,126c3.8662,0,7,3.134,7,7s-3.1338,7-7,7-7-3.1338-7-7,3.134-7,7-7Z"/>
          <path class="cls-1" d="m357,126c3.8662,0,7,3.134,7,7s-3.1338,7-7,7-7-3.1338-7-7,3.134-7,7-7Z"/>
          <path class="cls-1" d="m385,126c3.8662,0,7,3.134,7,7s-3.1338,7-7,7-7-3.1338-7-7,3.134-7,7-7Z"/>
          <path class="cls-1" d="m399,126c3.8662,0,7,3.134,7,7s-3.1338,7-7,7-7-3.1338-7-7,3.134-7,7-7Z"/>
          <path class="cls-1" d="m413,126c3.8662,0,7,3.134,7,7s-3.1338,7-7,7-7-3.1338-7-7,3.134-7,7-7Z"/>
          <path class="cls-1" d="m427,126c3.8662,0,7,3.134,7,7s-3.1338,7-7,7-7-3.1338-7-7,3.134-7,7-7Z"/>
          <path class="cls-1" d="m441,126c3.8662,0,7,3.134,7,7s-3.1338,7-7,7-7-3.1338-7-7,3.134-7,7-7Z"/>
          <path class="cls-1" d="m469,126c3.8662,0,7,3.134,7,7s-3.1338,7-7,7-7-3.1338-7-7,3.134-7,7-7Z"/>
          <path class="cls-1" d="m497,126c3.8662,0,7,3.134,7,7s-3.1338,7-7,7-7-3.1338-7-7,3.134-7,7-7Z"/>
          <path class="cls-1" d="m511,126c3.8662,0,7,3.134,7,7s-3.1338,7-7,7-7-3.1338-7-7,3.134-7,7-7Z"/>
          <path class="cls-1" d="m7,140c3.8662,0,7,3.134,7,7s-3.1338,7-7,7-7-3.1338-7-7,3.134-7,7-7Z"/>
          <path class="cls-1" d="m21,140c3.8662,0,7,3.134,7,7s-3.1338,7-7,7-7-3.1338-7-7,3.134-7,7-7Z"/>
          <path class="cls-1" d="m63,140c3.8662,0,7,3.134,7,7s-3.1338,7-7,7-7-3.1338-7-7,3.134-7,7-7Z"/>
          <path class="cls-1" d="m91,140c3.8662,0,7,3.134,7,7s-3.1338,7-7,7-7-3.1338-7-7,3.134-7,7-7Z"/>
          <path class="cls-1" d="m105,140c3.8662,0,7,3.134,7,7s-3.1338,7-7,7-7-3.1338-7-7,3.134-7,7-7Z"/>
          <path class="cls-1" d="m119,140c3.8662,0,7,3.134,7,7s-3.1338,7-7,7-7-3.1338-7-7,3.134-7,7-7Z"/>
          <path class="cls-1" d="m217,140c3.8662,0,7,3.134,7,7s-3.1338,7-7,7-7-3.1338-7-7,3.134-7,7-7Z"/>
          <path class="cls-1" d="m245,140c3.8662,0,7,3.134,7,7s-3.1338,7-7,7-7-3.1338-7-7,3.134-7,7-7Z"/>
          <path class="cls-1" d="m273,140c3.8662,0,7,3.134,7,7s-3.1338,7-7,7-7-3.1338-7-7,3.134-7,7-7Z"/>
          <path class="cls-1" d="m287,140c3.8662,0,7,3.134,7,7s-3.1338,7-7,7-7-3.1338-7-7,3.134-7,7-7Z"/>
          <path class="cls-1" d="m301,140c3.8662,0,7,3.134,7,7s-3.1338,7-7,7-7-3.1338-7-7,3.134-7,7-7Z"/>
          <path class="cls-1" d="m315,140c3.8662,0,7,3.134,7,7s-3.1338,7-7,7-7-3.1338-7-7,3.134-7,7-7Z"/>
          <path class="cls-1" d="m329,140c3.8662,0,7,3.134,7,7s-3.1338,7-7,7-7-3.1338-7-7,3.134-7,7-7Z"/>
          <path class="cls-1" d="m385,140c3.8662,0,7,3.134,7,7s-3.1338,7-7,7-7-3.1338-7-7,3.134-7,7-7Z"/>
          <path class="cls-1" d="m399,140c3.8662,0,7,3.134,7,7s-3.1338,7-7,7-7-3.1338-7-7,3.134-7,7-7Z"/>
          <path class="cls-1" d="m427,140c3.8662,0,7,3.134,7,7s-3.1338,7-7,7-7-3.1338-7-7,3.134-7,7-7Z"/>
          <path class="cls-1" d="m455,140c3.8662,0,7,3.134,7,7s-3.1338,7-7,7-7-3.1338-7-7,3.134-7,7-7Z"/>
          <path class="cls-1" d="m469,140c3.8662,0,7,3.134,7,7s-3.1338,7-7,7-7-3.1338-7-7,3.134-7,7-7Z"/>
          <path class="cls-1" d="m483,140c3.8662,0,7,3.134,7,7s-3.1338,7-7,7-7-3.1338-7-7,3.134-7,7-7Z"/>
          <path class="cls-1" d="m511,140c3.8662,0,7,3.134,7,7s-3.1338,7-7,7-7-3.1338-7-7,3.134-7,7-7Z"/>
          <path class="cls-1" d="m7,154c3.8662,0,7,3.134,7,7s-3.1338,7-7,7-7-3.1338-7-7,3.134-7,7-7Z"/>
          <path class="cls-1" d="m21,154c3.8662,0,7,3.134,7,7s-3.1338,7-7,7-7-3.1338-7-7,3.134-7,7-7Z"/>
          <path class="cls-1" d="m35,154c3.8662,0,7,3.134,7,7s-3.1338,7-7,7-7-3.1338-7-7,3.134-7,7-7Z"/>
          <path class="cls-1" d="m49,154c3.8662,0,7,3.134,7,7s-3.1338,7-7,7-7-3.1338-7-7,3.134-7,7-7Z"/>
          <path class="cls-1" d="m133,154c3.8662,0,7,3.134,7,7s-3.1338,7-7,7-7-3.1338-7-7,3.134-7,7-7Z"/>
          <path class="cls-1" d="m147,154c3.8662,0,7,3.134,7,7s-3.1338,7-7,7-7-3.1338-7-7,3.134-7,7-7Z"/>
          <path class="cls-1" d="m161,154c3.8662,0,7,3.134,7,7s-3.1338,7-7,7-7-3.1338-7-7,3.134-7,7-7Z"/>
          <path class="cls-1" d="m175,154c3.8662,0,7,3.134,7,7s-3.1338,7-7,7-7-3.1338-7-7,3.134-7,7-7Z"/>
          <path class="cls-1" d="m189,154c3.8662,0,7,3.134,7,7s-3.1338,7-7,7-7-3.1338-7-7,3.134-7,7-7Z"/>
          <path class="cls-1" d="m259,154c3.8662,0,7,3.134,7,7s-3.1338,7-7,7-7-3.1338-7-7,3.134-7,7-7Z"/>
          <path class="cls-1" d="m287,154c3.8662,0,7,3.134,7,7s-3.1338,7-7,7-7-3.1338-7-7,3.134-7,7-7Z"/>
          <path class="cls-1" d="m315,154c3.8662,0,7,3.134,7,7s-3.1338,7-7,7-7-3.1338-7-7,3.134-7,7-7Z"/>
          <path class="cls-1" d="m343,154c3.8662,0,7,3.134,7,7s-3.1338,7-7,7-7-3.1338-7-7,3.134-7,7-7Z"/>
          <path class="cls-1" d="m371,154c3.8662,0,7,3.134,7,7s-3.1338,7-7,7-7-3.1338-7-7,3.134-7,7-7Z"/>
          <path class="cls-1" d="m399,154c3.8662,0,7,3.134,7,7s-3.1338,7-7,7-7-3.1338-7-7,3.134-7,7-7Z"/>
          <path class="cls-1" d="m413,154c3.8662,0,7,3.134,7,7s-3.1338,7-7,7-7-3.1338-7-7,3.134-7,7-7Z"/>
          <path class="cls-1" d="m427,154c3.8662,0,7,3.134,7,7s-3.1338,7-7,7-7-3.1338-7-7,3.134-7,7-7Z"/>
          <path class="cls-1" d="m469,154c3.8662,0,7,3.134,7,7s-3.1338,7-7,7-7-3.1338-7-7,3.134-7,7-7Z"/>
          <path class="cls-1" d="m7,168c3.8662,0,7,3.134,7,7s-3.1338,7-7,7-7-3.1338-7-7,3.134-7,7-7Z"/>
          <path class="cls-1" d="m49,168c3.8662,0,7,3.134,7,7s-3.1338,7-7,7-7-3.1338-7-7,3.134-7,7-7Z"/>
          <path class="cls-1" d="m91,168c3.8662,0,7,3.134,7,7s-3.1338,7-7,7-7-3.1338-7-7,3.134-7,7-7Z"/>
          <path class="cls-1" d="m119,168c3.8662,0,7,3.134,7,7s-3.1338,7-7,7-7-3.1338-7-7,3.134-7,7-7Z"/>
          <path class="cls-1" d="m147,168c3.8662,0,7,3.134,7,7s-3.1338,7-7,7-7-3.1338-7-7,3.134-7,7-7Z"/>
          <path class="cls-1" d="m161,168c3.8662,0,7,3.134,7,7s-3.1338,7-7,7-7-3.1338-7-7,3.134-7,7-7Z"/>
          <path class="cls-1" d="m217,168c3.8662,0,7,3.134,7,7s-3.1338,7-7,7-7-3.1338-7-7,3.134-7,7-7Z"/>
          <path class="cls-1" d="m231,168c3.8662,0,7,3.134,7,7s-3.1338,7-7,7-7-3.1338-7-7,3.134-7,7-7Z"/>
          <path class="cls-1" d="m273,168c3.8662,0,7,3.134,7,7s-3.1338,7-7,7-7-3.1338-7-7,3.134-7,7-7Z"/>
          <path class="cls-1" d="m329,168c3.8662,0,7,3.134,7,7s-3.1338,7-7,7-7-3.1338-7-7,3.134-7,7-7Z"/>
          <path class="cls-1" d="m385,168c3.8662,0,7,3.134,7,7s-3.1338,7-7,7-7-3.1338-7-7,3.134-7,7-7Z"/>
          <path class="cls-1" d="m399,168c3.8662,0,7,3.134,7,7s-3.1338,7-7,7-7-3.1338-7-7,3.134-7,7-7Z"/>
          <path class="cls-1" d="m427,168c3.8662,0,7,3.134,7,7s-3.1338,7-7,7-7-3.1338-7-7,3.134-7,7-7Z"/>
          <path class="cls-1" d="m441,168c3.8662,0,7,3.134,7,7s-3.1338,7-7,7-7-3.1338-7-7,3.134-7,7-7Z"/>
          <path class="cls-1" d="m469,168c3.8662,0,7,3.134,7,7s-3.1338,7-7,7-7-3.1338-7-7,3.134-7,7-7Z"/>
          <path class="cls-1" d="m511,168c3.8662,0,7,3.134,7,7s-3.1338,7-7,7-7-3.1338-7-7,3.134-7,7-7Z"/>
          <path class="cls-1" d="m7,182c3.8662,0,7,3.134,7,7s-3.1338,7-7,7-7-3.1338-7-7,3.134-7,7-7Z"/>
          <path class="cls-1" d="m21,182c3.8662,0,7,3.134,7,7s-3.1338,7-7,7-7-3.1338-7-7,3.134-7,7-7Z"/>
          <path class="cls-1" d="m49,182c3.8662,0,7,3.134,7,7s-3.1338,7-7,7-7-3.1338-7-7,3.134-7,7-7Z"/>
          <path class="cls-1" d="m77,182c3.8662,0,7,3.134,7,7s-3.1338,7-7,7-7-3.1338-7-7,3.134-7,7-7Z"/>
          <path class="cls-1" d="m203,182c3.8662,0,7,3.134,7,7s-3.1338,7-7,7-7-3.1338-7-7,3.134-7,7-7Z"/>
          <path class="cls-1" d="m217,182c3.8662,0,7,3.134,7,7s-3.1338,7-7,7-7-3.1338-7-7,3.134-7,7-7Z"/>
          <path class="cls-1" d="m259,182c3.8662,0,7,3.134,7,7s-3.1338,7-7,7-7-3.1338-7-7,3.134-7,7-7Z"/>
          <path class="cls-1" d="m273,182c3.8662,0,7,3.134,7,7s-3.1338,7-7,7-7-3.1338-7-7,3.134-7,7-7Z"/>
          <path class="cls-1" d="m287,182c3.8662,0,7,3.134,7,7s-3.1338,7-7,7-7-3.1338-7-7,3.134-7,7-7Z"/>
          <path class="cls-1" d="m315,182c3.8662,0,7,3.134,7,7s-3.1338,7-7,7-7-3.1338-7-7,3.134-7,7-7Z"/>
          <path class="cls-1" d="m329,182c3.8662,0,7,3.134,7,7s-3.1338,7-7,7-7-3.1338-7-7,3.134-7,7-7Z"/>
          <path class="cls-1" d="m343,182c3.8662,0,7,3.134,7,7s-3.1338,7-7,7-7-3.1338-7-7,3.134-7,7-7Z"/>
          <path class="cls-1" d="m357,182c3.8662,0,7,3.134,7,7s-3.1338,7-7,7-7-3.1338-7-7,3.134-7,7-7Z"/>
          <path class="cls-1" d="m385,182c3.8662,0,7,3.134,7,7s-3.1338,7-7,7-7-3.1338-7-7,3.134-7,7-7Z"/>
          <path class="cls-1" d="m427,182c3.8662,0,7,3.134,7,7s-3.1338,7-7,7-7-3.1338-7-7,3.134-7,7-7Z"/>
          <path class="cls-1" d="m441,182c3.8662,0,7,3.134,7,7s-3.1338,7-7,7-7-3.1338-7-7,3.134-7,7-7Z"/>
          <path class="cls-1" d="m469,182c3.8662,0,7,3.134,7,7s-3.1338,7-7,7-7-3.1338-7-7,3.134-7,7-7Z"/>
          <path class="cls-1" d="m497,182c3.8662,0,7,3.134,7,7s-3.1338,7-7,7-7-3.1338-7-7,3.134-7,7-7Z"/>
          <path class="cls-1" d="m511,182c3.8662,0,7,3.134,7,7s-3.1338,7-7,7-7-3.1338-7-7,3.134-7,7-7Z"/>
          <path class="cls-1" d="m21,196c3.8662,0,7,3.134,7,7s-3.1338,7-7,7-7-3.1338-7-7,3.134-7,7-7Z"/>
          <path class="cls-1" d="m77,196c3.8662,0,7,3.134,7,7s-3.1338,7-7,7-7-3.1338-7-7,3.134-7,7-7Z"/>
          <path class="cls-1" d="m91,196c3.8662,0,7,3.134,7,7s-3.1338,7-7,7-7-3.1338-7-7,3.134-7,7-7Z"/>
          <path class="cls-1" d="m133,196c3.8662,0,7,3.134,7,7s-3.1338,7-7,7-7-3.1338-7-7,3.134-7,7-7Z"/>
          <path class="cls-1" d="m147,196c3.8662,0,7,3.134,7,7s-3.1338,7-7,7-7-3.1338-7-7,3.134-7,7-7Z"/>
          <path class="cls-1" d="m161,196c3.8662,0,7,3.134,7,7s-3.1338,7-7,7-7-3.1338-7-7,3.134-7,7-7Z"/>
          <path class="cls-1" d="m175,196c3.8662,0,7,3.134,7,7s-3.1338,7-7,7-7-3.1338-7-7,3.134-7,7-7Z"/>
          <path class="cls-1" d="m189,196c3.8662,0,7,3.134,7,7s-3.1338,7-7,7-7-3.1338-7-7,3.134-7,7-7Z"/>
          <path class="cls-1" d="m217,196c3.8662,0,7,3.134,7,7s-3.1338,7-7,7-7-3.1338-7-7,3.134-7,7-7Z"/>
          <path class="cls-1" d="m259,196c3.8662,0,7,3.134,7,7s-3.1338,7-7,7-7-3.1338-7-7,3.134-7,7-7Z"/>
          <path class="cls-1" d="m273,196c3.8662,0,7,3.134,7,7s-3.1338,7-7,7-7-3.1338-7-7,3.134-7,7-7Z"/>
          <path class="cls-1" d="m287,196c3.8662,0,7,3.134,7,7s-3.1338,7-7,7-7-3.1338-7-7,3.134-7,7-7Z"/>
          <path class="cls-1" d="m301,196c3.8662,0,7,3.134,7,7s-3.1338,7-7,7-7-3.1338-7-7,3.134-7,7-7Z"/>
          <path class="cls-1" d="m315,196c3.8662,0,7,3.134,7,7s-3.1338,7-7,7-7-3.1338-7-7,3.134-7,7-7Z"/>
          <path class="cls-1" d="m329,196c3.8662,0,7,3.134,7,7s-3.1338,7-7,7-7-3.1338-7-7,3.134-7,7-7Z"/>
          <path class="cls-1" d="m385,196c3.8662,0,7,3.134,7,7s-3.1338,7-7,7-7-3.1338-7-7,3.134-7,7-7Z"/>
          <path class="cls-1" d="m399,196c3.8662,0,7,3.134,7,7s-3.1338,7-7,7-7-3.1338-7-7,3.134-7,7-7Z"/>
          <path class="cls-1" d="m427,196c3.8662,0,7,3.134,7,7s-3.1338,7-7,7-7-3.1338-7-7,3.134-7,7-7Z"/>
          <path class="cls-1" d="m469,196c3.8662,0,7,3.134,7,7s-3.1338,7-7,7-7-3.1338-7-7,3.134-7,7-7Z"/>
          <path class="cls-1" d="m483,196c3.8662,0,7,3.134,7,7s-3.1338,7-7,7-7-3.1338-7-7,3.134-7,7-7Z"/>
          <path class="cls-1" d="m511,196c3.8662,0,7,3.134,7,7s-3.1338,7-7,7-7-3.1338-7-7,3.134-7,7-7Z"/>
          <path class="cls-1" d="m35,210c3.8662,0,7,3.134,7,7s-3.1338,7-7,7-7-3.1338-7-7,3.134-7,7-7Z"/>
          <path class="cls-1" d="m49,210c3.8662,0,7,3.134,7,7s-3.1338,7-7,7-7-3.1338-7-7,3.134-7,7-7Z"/>
          <path class="cls-1" d="m77,210c3.8662,0,7,3.134,7,7s-3.1338,7-7,7-7-3.1338-7-7,3.134-7,7-7Z"/>
          <path class="cls-1" d="m105,210c3.8662,0,7,3.134,7,7s-3.1338,7-7,7-7-3.1338-7-7,3.134-7,7-7Z"/>
          <path class="cls-1" d="m147,210c3.8662,0,7,3.134,7,7s-3.1338,7-7,7-7-3.1338-7-7,3.134-7,7-7Z"/>
          <path class="cls-1" d="m189,210c3.8662,0,7,3.134,7,7s-3.1338,7-7,7-7-3.1338-7-7,3.134-7,7-7Z"/>
          <path class="cls-1" d="m203,210c3.8662,0,7,3.134,7,7s-3.1338,7-7,7-7-3.1338-7-7,3.134-7,7-7Z"/>
          <path class="cls-1" d="m231,210c3.8662,0,7,3.134,7,7s-3.1338,7-7,7-7-3.1338-7-7,3.134-7,7-7Z"/>
          <path class="cls-1" d="m259,210c3.8662,0,7,3.134,7,7s-3.1338,7-7,7-7-3.1338-7-7,3.134-7,7-7Z"/>
          <path class="cls-1" d="m287,210c3.8662,0,7,3.134,7,7s-3.1338,7-7,7-7-3.1338-7-7,3.134-7,7-7Z"/>
          <path class="cls-1" d="m315,210c3.8662,0,7,3.134,7,7s-3.1338,7-7,7-7-3.1338-7-7,3.134-7,7-7Z"/>
          <path class="cls-1" d="m329,210c3.8662,0,7,3.134,7,7s-3.1338,7-7,7-7-3.1338-7-7,3.134-7,7-7Z"/>
          <path class="cls-1" d="m343,210c3.8662,0,7,3.134,7,7s-3.1338,7-7,7-7-3.1338-7-7,3.134-7,7-7Z"/>
          <path class="cls-1" d="m371,210c3.8662,0,7,3.134,7,7s-3.1338,7-7,7-7-3.1338-7-7,3.134-7,7-7Z"/>
          <path class="cls-1" d="m385,210c3.8662,0,7,3.134,7,7s-3.1338,7-7,7-7-3.1338-7-7,3.134-7,7-7Z"/>
          <path class="cls-1" d="m413,210c3.8662,0,7,3.134,7,7s-3.1338,7-7,7-7-3.1338-7-7,3.134-7,7-7Z"/>
          <path class="cls-1" d="m427,210c3.8662,0,7,3.134,7,7s-3.1338,7-7,7-7-3.1338-7-7,3.134-7,7-7Z"/>
          <path class="cls-1" d="m441,210c3.8662,0,7,3.134,7,7s-3.1338,7-7,7-7-3.1338-7-7,3.134-7,7-7Z"/>
          <path class="cls-1" d="m455,210c3.8662,0,7,3.134,7,7s-3.1338,7-7,7-7-3.1338-7-7,3.134-7,7-7Z"/>
          <path class="cls-1" d="m469,210c3.8662,0,7,3.134,7,7s-3.1338,7-7,7-7-3.1338-7-7,3.134-7,7-7Z"/>
          <path class="cls-1" d="m497,210c3.8662,0,7,3.134,7,7s-3.1338,7-7,7-7-3.1338-7-7,3.134-7,7-7Z"/>
          <path class="cls-1" d="m21,224c3.8662,0,7,3.134,7,7s-3.1338,7-7,7-7-3.1338-7-7,3.134-7,7-7Z"/>
          <path class="cls-1" d="m35,224c3.8662,0,7,3.134,7,7s-3.1338,7-7,7-7-3.1338-7-7,3.134-7,7-7Z"/>
          <path class="cls-1" d="m49,224c3.8662,0,7,3.134,7,7s-3.1338,7-7,7-7-3.1338-7-7,3.134-7,7-7Z"/>
          <path class="cls-1" d="m63,224c3.8662,0,7,3.134,7,7s-3.1338,7-7,7-7-3.1338-7-7,3.134-7,7-7Z"/>
          <path class="cls-1" d="m77,224c3.8662,0,7,3.134,7,7s-3.1338,7-7,7-7-3.1338-7-7,3.134-7,7-7Z"/>
          <path class="cls-1" d="m91,224c3.8662,0,7,3.134,7,7s-3.1338,7-7,7-7-3.1338-7-7,3.134-7,7-7Z"/>
          <path class="cls-1" d="m105,224c3.8662,0,7,3.134,7,7s-3.1338,7-7,7-7-3.1338-7-7,3.134-7,7-7Z"/>
          <path class="cls-1" d="m119,224c3.8662,0,7,3.134,7,7s-3.1338,7-7,7-7-3.1338-7-7,3.134-7,7-7Z"/>
          <path class="cls-1" d="m175,224c3.8662,0,7,3.134,7,7s-3.1338,7-7,7-7-3.1338-7-7,3.134-7,7-7Z"/>
          <path class="cls-1" d="m189,224c3.8662,0,7,3.134,7,7s-3.1338,7-7,7-7-3.1338-7-7,3.134-7,7-7Z"/>
          <path class="cls-1" d="m217,224c3.8662,0,7,3.134,7,7s-3.1338,7-7,7-7-3.1338-7-7,3.134-7,7-7Z"/>
          <path class="cls-1" d="m231,224c3.8662,0,7,3.134,7,7s-3.1338,7-7,7-7-3.1338-7-7,3.134-7,7-7Z"/>
          <path class="cls-1" d="m259,224c3.8662,0,7,3.134,7,7s-3.1338,7-7,7-7-3.1338-7-7,3.134-7,7-7Z"/>
          <path class="cls-1" d="m273,224c3.8662,0,7,3.134,7,7s-3.1338,7-7,7-7-3.1338-7-7,3.134-7,7-7Z"/>
          <path class="cls-1" d="m329,224c3.8662,0,7,3.134,7,7s-3.1338,7-7,7-7-3.1338-7-7,3.134-7,7-7Z"/>
          <path class="cls-1" d="m343,224c3.8662,0,7,3.134,7,7s-3.1338,7-7,7-7-3.1338-7-7,3.134-7,7-7Z"/>
          <path class="cls-1" d="m385,224c3.8662,0,7,3.134,7,7s-3.1338,7-7,7-7-3.1338-7-7,3.134-7,7-7Z"/>
          <path class="cls-1" d="m413,224c3.8662,0,7,3.134,7,7s-3.1338,7-7,7-7-3.1338-7-7,3.134-7,7-7Z"/>
          <path class="cls-1" d="m427,224c3.8662,0,7,3.134,7,7s-3.1338,7-7,7-7-3.1338-7-7,3.134-7,7-7Z"/>
          <path class="cls-1" d="m441,224c3.8662,0,7,3.134,7,7s-3.1338,7-7,7-7-3.1338-7-7,3.134-7,7-7Z"/>
          <path class="cls-1" d="m497,224c3.8662,0,7,3.134,7,7s-3.1338,7-7,7-7-3.1338-7-7,3.134-7,7-7Z"/>
          <path class="cls-1" d="m49,238c3.8662,0,7,3.134,7,7s-3.1338,7-7,7-7-3.1338-7-7,3.134-7,7-7Z"/>
          <path class="cls-1" d="m63,238c3.8662,0,7,3.134,7,7s-3.1338,7-7,7-7-3.1338-7-7,3.134-7,7-7Z"/>
          <path class="cls-1" d="m77,238c3.8662,0,7,3.134,7,7s-3.1338,7-7,7-7-3.1338-7-7,3.134-7,7-7Z"/>
          <path class="cls-1" d="m105,238c3.8662,0,7,3.134,7,7s-3.1338,7-7,7-7-3.1338-7-7,3.134-7,7-7Z"/>
          <path class="cls-1" d="m119,238c3.8662,0,7,3.134,7,7s-3.1338,7-7,7-7-3.1338-7-7,3.134-7,7-7Z"/>
          <path class="cls-1" d="m161,238c3.8662,0,7,3.134,7,7s-3.1338,7-7,7-7-3.1338-7-7,3.134-7,7-7Z"/>
          <path class="cls-1" d="m189,238c3.8662,0,7,3.134,7,7s-3.1338,7-7,7-7-3.1338-7-7,3.134-7,7-7Z"/>
          <path class="cls-1" d="m203,238c3.8662,0,7,3.134,7,7s-3.1338,7-7,7-7-3.1338-7-7,3.134-7,7-7Z"/>
          <path class="cls-1" d="m231,238c3.8662,0,7,3.134,7,7s-3.1338,7-7,7-7-3.1338-7-7,3.134-7,7-7Z"/>
          <path class="cls-1" d="m273,238c3.8662,0,7,3.134,7,7s-3.1338,7-7,7-7-3.1338-7-7,3.134-7,7-7Z"/>
          <path class="cls-1" d="m287,238c3.8662,0,7,3.134,7,7s-3.1338,7-7,7-7-3.1338-7-7,3.134-7,7-7Z"/>
          <path class="cls-1" d="m329,238c3.8662,0,7,3.134,7,7s-3.1338,7-7,7-7-3.1338-7-7,3.134-7,7-7Z"/>
          <path class="cls-1" d="m343,238c3.8662,0,7,3.134,7,7s-3.1338,7-7,7-7-3.1338-7-7,3.134-7,7-7Z"/>
          <path class="cls-1" d="m357,238c3.8662,0,7,3.134,7,7s-3.1338,7-7,7-7-3.1338-7-7,3.134-7,7-7Z"/>
          <path class="cls-1" d="m371,238c3.8662,0,7,3.134,7,7s-3.1338,7-7,7-7-3.1338-7-7,3.134-7,7-7Z"/>
          <path class="cls-1" d="m385,238c3.8662,0,7,3.134,7,7s-3.1338,7-7,7-7-3.1338-7-7,3.134-7,7-7Z"/>
          <path class="cls-1" d="m399,238c3.8662,0,7,3.134,7,7s-3.1338,7-7,7-7-3.1338-7-7,3.134-7,7-7Z"/>
          <path class="cls-1" d="m427,238c3.8662,0,7,3.134,7,7s-3.1338,7-7,7-7-3.1338-7-7,3.134-7,7-7Z"/>
          <path class="cls-1" d="m441,238c3.8662,0,7,3.134,7,7s-3.1338,7-7,7-7-3.1338-7-7,3.134-7,7-7Z"/>
          <path class="cls-1" d="m483,238c3.8662,0,7,3.134,7,7s-3.1338,7-7,7-7-3.1338-7-7,3.134-7,7-7Z"/>
          <path class="cls-1" d="m497,238c3.8662,0,7,3.134,7,7s-3.1338,7-7,7-7-3.1338-7-7,3.134-7,7-7Z"/>
          <path class="cls-1" d="m511,238c3.8662,0,7,3.134,7,7s-3.1338,7-7,7-7-3.1338-7-7,3.134-7,7-7Z"/>
          <path class="cls-1" d="m21,252c3.8662,0,7,3.134,7,7s-3.1338,7-7,7-7-3.1338-7-7,3.134-7,7-7Z"/>
          <path class="cls-1" d="m63,252c3.8662,0,7,3.134,7,7s-3.1338,7-7,7-7-3.1338-7-7,3.134-7,7-7Z"/>
          <path class="cls-1" d="m91,252c3.8662,0,7,3.134,7,7s-3.1338,7-7,7-7-3.1338-7-7,3.134-7,7-7Z"/>
          <path class="cls-1" d="m105,252c3.8662,0,7,3.134,7,7s-3.1338,7-7,7-7-3.1338-7-7,3.134-7,7-7Z"/>
          <path class="cls-1" d="m119,252c3.8662,0,7,3.134,7,7s-3.1338,7-7,7-7-3.1338-7-7,3.134-7,7-7Z"/>
          <path class="cls-1" d="m133,252c3.8662,0,7,3.134,7,7s-3.1338,7-7,7-7-3.1338-7-7,3.134-7,7-7Z"/>
          <path class="cls-1" d="m175,252c3.8662,0,7,3.134,7,7s-3.1338,7-7,7-7-3.1338-7-7,3.134-7,7-7Z"/>
          <path class="cls-1" d="m231,252c3.8662,0,7,3.134,7,7s-3.1338,7-7,7-7-3.1338-7-7,3.134-7,7-7Z"/>
          <path class="cls-1" d="m259,252c3.8662,0,7,3.134,7,7s-3.1338,7-7,7-7-3.1338-7-7,3.134-7,7-7Z"/>
          <path class="cls-1" d="m273,252c3.8662,0,7,3.134,7,7s-3.1338,7-7,7-7-3.1338-7-7,3.134-7,7-7Z"/>
          <path class="cls-1" d="m301,252c3.8662,0,7,3.134,7,7s-3.1338,7-7,7-7-3.1338-7-7,3.134-7,7-7Z"/>
          <path class="cls-1" d="m329,252c3.8662,0,7,3.134,7,7s-3.1338,7-7,7-7-3.1338-7-7,3.134-7,7-7Z"/>
          <path class="cls-1" d="m357,252c3.8662,0,7,3.134,7,7s-3.1338,7-7,7-7-3.1338-7-7,3.134-7,7-7Z"/>
          <path class="cls-1" d="m385,252c3.8662,0,7,3.134,7,7s-3.1338,7-7,7-7-3.1338-7-7,3.134-7,7-7Z"/>
          <path class="cls-1" d="m413,252c3.8662,0,7,3.134,7,7s-3.1338,7-7,7-7-3.1338-7-7,3.134-7,7-7Z"/>
          <path class="cls-1" d="m441,252c3.8662,0,7,3.134,7,7s-3.1338,7-7,7-7-3.1338-7-7,3.134-7,7-7Z"/>
          <path class="cls-1" d="m483,252c3.8662,0,7,3.134,7,7s-3.1338,7-7,7-7-3.1338-7-7,3.134-7,7-7Z"/>
          <path class="cls-1" d="m511,252c3.8662,0,7,3.134,7,7s-3.1338,7-7,7-7-3.1338-7-7,3.134-7,7-7Z"/>
          <path class="cls-1" d="m7,266c3.8662,0,7,3.134,7,7s-3.1338,7-7,7-7-3.1338-7-7,3.134-7,7-7Z"/>
          <path class="cls-1" d="m21,266c3.8662,0,7,3.134,7,7s-3.1338,7-7,7-7-3.1338-7-7,3.134-7,7-7Z"/>
          <path class="cls-1" d="m35,266c3.8662,0,7,3.134,7,7s-3.1338,7-7,7-7-3.1338-7-7,3.134-7,7-7Z"/>
          <path class="cls-1" d="m63,266c3.8662,0,7,3.134,7,7s-3.1338,7-7,7-7-3.1338-7-7,3.134-7,7-7Z"/>
          <path class="cls-1" d="m119,266c3.8662,0,7,3.134,7,7s-3.1338,7-7,7-7-3.1338-7-7,3.134-7,7-7Z"/>
          <path class="cls-1" d="m147,266c3.8662,0,7,3.134,7,7s-3.1338,7-7,7-7-3.1338-7-7,3.134-7,7-7Z"/>
          <path class="cls-1" d="m161,266c3.8662,0,7,3.134,7,7s-3.1338,7-7,7-7-3.1338-7-7,3.134-7,7-7Z"/>
          <path class="cls-1" d="m189,266c3.8662,0,7,3.134,7,7s-3.1338,7-7,7-7-3.1338-7-7,3.134-7,7-7Z"/>
          <path class="cls-1" d="m203,266c3.8662,0,7,3.134,7,7s-3.1338,7-7,7-7-3.1338-7-7,3.134-7,7-7Z"/>
          <path class="cls-1" d="m217,266c3.8662,0,7,3.134,7,7s-3.1338,7-7,7-7-3.1338-7-7,3.134-7,7-7Z"/>
          <path class="cls-1" d="m231,266c3.8662,0,7,3.134,7,7s-3.1338,7-7,7-7-3.1338-7-7,3.134-7,7-7Z"/>
          <path class="cls-1" d="m259,266c3.8662,0,7,3.134,7,7s-3.1338,7-7,7-7-3.1338-7-7,3.134-7,7-7Z"/>
          <path class="cls-1" d="m329,266c3.8662,0,7,3.134,7,7s-3.1338,7-7,7-7-3.1338-7-7,3.134-7,7-7Z"/>
          <path class="cls-1" d="m371,266c3.8662,0,7,3.134,7,7s-3.1338,7-7,7-7-3.1338-7-7,3.134-7,7-7Z"/>
          <path class="cls-1" d="m385,266c3.8662,0,7,3.134,7,7s-3.1338,7-7,7-7-3.1338-7-7,3.134-7,7-7Z"/>
          <path class="cls-1" d="m413,266c3.8662,0,7,3.134,7,7s-3.1338,7-7,7-7-3.1338-7-7,3.134-7,7-7Z"/>
          <path class="cls-1" d="m469,266c3.8662,0,7,3.134,7,7s-3.1338,7-7,7-7-3.1338-7-7,3.134-7,7-7Z"/>
          <path class="cls-1" d="m7,280c3.8662,0,7,3.134,7,7s-3.1338,7-7,7-7-3.1338-7-7,3.134-7,7-7Z"/>
          <path class="cls-1" d="m21,280c3.8662,0,7,3.134,7,7s-3.1338,7-7,7-7-3.1338-7-7,3.134-7,7-7Z"/>
          <path class="cls-1" d="m35,280c3.8662,0,7,3.134,7,7s-3.1338,7-7,7-7-3.1338-7-7,3.134-7,7-7Z"/>
          <path class="cls-1" d="m63,280c3.8662,0,7,3.134,7,7s-3.1338,7-7,7-7-3.1338-7-7,3.134-7,7-7Z"/>
          <path class="cls-1" d="m91,280c3.8662,0,7,3.134,7,7s-3.1338,7-7,7-7-3.1338-7-7,3.134-7,7-7Z"/>
          <path class="cls-1" d="m133,280c3.8662,0,7,3.134,7,7s-3.1338,7-7,7-7-3.1338-7-7,3.134-7,7-7Z"/>
          <path class="cls-1" d="m147,280c3.8662,0,7,3.134,7,7s-3.1338,7-7,7-7-3.1338-7-7,3.134-7,7-7Z"/>
          <path class="cls-1" d="m161,280c3.8662,0,7,3.134,7,7s-3.1338,7-7,7-7-3.1338-7-7,3.134-7,7-7Z"/>
          <path class="cls-1" d="m175,280c3.8662,0,7,3.134,7,7s-3.1338,7-7,7-7-3.1338-7-7,3.134-7,7-7Z"/>
          <path class="cls-1" d="m189,280c3.8662,0,7,3.134,7,7s-3.1338,7-7,7-7-3.1338-7-7,3.134-7,7-7Z"/>
          <path class="cls-1" d="m203,280c3.8662,0,7,3.134,7,7s-3.1338,7-7,7-7-3.1338-7-7,3.134-7,7-7Z"/>
          <path class="cls-1" d="m231,280c3.8662,0,7,3.134,7,7s-3.1338,7-7,7-7-3.1338-7-7,3.134-7,7-7Z"/>
          <path class="cls-1" d="m259,280c3.8662,0,7,3.134,7,7s-3.1338,7-7,7-7-3.1338-7-7,3.134-7,7-7Z"/>
          <path class="cls-1" d="m301,280c3.8662,0,7,3.134,7,7s-3.1338,7-7,7-7-3.1338-7-7,3.134-7,7-7Z"/>
          <path class="cls-1" d="m329,280c3.8662,0,7,3.134,7,7s-3.1338,7-7,7-7-3.1338-7-7,3.134-7,7-7Z"/>
          <path class="cls-1" d="m343,280c3.8662,0,7,3.134,7,7s-3.1338,7-7,7-7-3.1338-7-7,3.134-7,7-7Z"/>
          <path class="cls-1" d="m371,280c3.8662,0,7,3.134,7,7s-3.1338,7-7,7-7-3.1338-7-7,3.134-7,7-7Z"/>
          <path class="cls-1" d="m385,280c3.8662,0,7,3.134,7,7s-3.1338,7-7,7-7-3.1338-7-7,3.134-7,7-7Z"/>
          <path class="cls-1" d="m399,280c3.8662,0,7,3.134,7,7s-3.1338,7-7,7-7-3.1338-7-7,3.134-7,7-7Z"/>
          <path class="cls-1" d="m427,280c3.8662,0,7,3.134,7,7s-3.1338,7-7,7-7-3.1338-7-7,3.134-7,7-7Z"/>
          <path class="cls-1" d="m441,280c3.8662,0,7,3.134,7,7s-3.1338,7-7,7-7-3.1338-7-7,3.134-7,7-7Z"/>
          <path class="cls-1" d="m469,280c3.8662,0,7,3.134,7,7s-3.1338,7-7,7-7-3.1338-7-7,3.134-7,7-7Z"/>
          <path class="cls-1" d="m497,280c3.8662,0,7,3.134,7,7s-3.1338,7-7,7-7-3.1338-7-7,3.134-7,7-7Z"/>
          <path class="cls-1" d="m7,294c3.8662,0,7,3.134,7,7s-3.1338,7-7,7-7-3.1338-7-7,3.134-7,7-7Z"/>
          <path class="cls-1" d="m21,294c3.8662,0,7,3.134,7,7s-3.1338,7-7,7-7-3.1338-7-7,3.134-7,7-7Z"/>
          <path class="cls-1" d="m49,294c3.8662,0,7,3.134,7,7s-3.1338,7-7,7-7-3.1338-7-7,3.134-7,7-7Z"/>
          <path class="cls-1" d="m147,294c3.8662,0,7,3.134,7,7s-3.1338,7-7,7-7-3.1338-7-7,3.134-7,7-7Z"/>
          <path class="cls-1" d="m189,294c3.8662,0,7,3.134,7,7s-3.1338,7-7,7-7-3.1338-7-7,3.134-7,7-7Z"/>
          <path class="cls-1" d="m217,294c3.8662,0,7,3.134,7,7s-3.1338,7-7,7-7-3.1338-7-7,3.134-7,7-7Z"/>
          <path class="cls-1" d="m231,294c3.8662,0,7,3.134,7,7s-3.1338,7-7,7-7-3.1338-7-7,3.134-7,7-7Z"/>
          <path class="cls-1" d="m245,294c3.8662,0,7,3.134,7,7s-3.1338,7-7,7-7-3.1338-7-7,3.134-7,7-7Z"/>
          <path class="cls-1" d="m273,294c3.8662,0,7,3.134,7,7s-3.1338,7-7,7-7-3.1338-7-7,3.134-7,7-7Z"/>
          <path class="cls-1" d="m287,294c3.8662,0,7,3.134,7,7s-3.1338,7-7,7-7-3.1338-7-7,3.134-7,7-7Z"/>
          <path class="cls-1" d="m301,294c3.8662,0,7,3.134,7,7s-3.1338,7-7,7-7-3.1338-7-7,3.134-7,7-7Z"/>
          <path class="cls-1" d="m343,294c3.8662,0,7,3.134,7,7s-3.1338,7-7,7-7-3.1338-7-7,3.134-7,7-7Z"/>
          <path class="cls-1" d="m385,294c3.8662,0,7,3.134,7,7s-3.1338,7-7,7-7-3.1338-7-7,3.134-7,7-7Z"/>
          <path class="cls-1" d="m399,294c3.8662,0,7,3.134,7,7s-3.1338,7-7,7-7-3.1338-7-7,3.134-7,7-7Z"/>
          <path class="cls-1" d="m413,294c3.8662,0,7,3.134,7,7s-3.1338,7-7,7-7-3.1338-7-7,3.134-7,7-7Z"/>
          <path class="cls-1" d="m427,294c3.8662,0,7,3.134,7,7s-3.1338,7-7,7-7-3.1338-7-7,3.134-7,7-7Z"/>
          <path class="cls-1" d="m511,294c3.8662,0,7,3.134,7,7s-3.1338,7-7,7-7-3.1338-7-7,3.134-7,7-7Z"/>
          <path class="cls-1" d="m7,308c3.8662,0,7,3.134,7,7s-3.1338,7-7,7-7-3.1338-7-7,3.134-7,7-7Z"/>
          <path class="cls-1" d="m63,308c3.8662,0,7,3.134,7,7s-3.1338,7-7,7-7-3.1338-7-7,3.134-7,7-7Z"/>
          <path class="cls-1" d="m91,308c3.8662,0,7,3.134,7,7s-3.1338,7-7,7-7-3.1338-7-7,3.134-7,7-7Z"/>
          <path class="cls-1" d="m105,308c3.8662,0,7,3.134,7,7s-3.1338,7-7,7-7-3.1338-7-7,3.134-7,7-7Z"/>
          <path class="cls-1" d="m161,308c3.8662,0,7,3.134,7,7s-3.1338,7-7,7-7-3.1338-7-7,3.134-7,7-7Z"/>
          <path class="cls-1" d="m189,308c3.8662,0,7,3.134,7,7s-3.1338,7-7,7-7-3.1338-7-7,3.134-7,7-7Z"/>
          <path class="cls-1" d="m217,308c3.8662,0,7,3.134,7,7s-3.1338,7-7,7-7-3.1338-7-7,3.134-7,7-7Z"/>
          <path class="cls-1" d="m273,308c3.8662,0,7,3.134,7,7s-3.1338,7-7,7-7-3.1338-7-7,3.134-7,7-7Z"/>
          <path class="cls-1" d="m301,308c3.8662,0,7,3.134,7,7s-3.1338,7-7,7-7-3.1338-7-7,3.134-7,7-7Z"/>
          <path class="cls-1" d="m329,308c3.8662,0,7,3.134,7,7s-3.1338,7-7,7-7-3.1338-7-7,3.134-7,7-7Z"/>
          <path class="cls-1" d="m371,308c3.8662,0,7,3.134,7,7s-3.1338,7-7,7-7-3.1338-7-7,3.134-7,7-7Z"/>
          <path class="cls-1" d="m385,308c3.8662,0,7,3.134,7,7s-3.1338,7-7,7-7-3.1338-7-7,3.134-7,7-7Z"/>
          <path class="cls-1" d="m469,308c3.8662,0,7,3.134,7,7s-3.1338,7-7,7-7-3.1338-7-7,3.134-7,7-7Z"/>
          <path class="cls-1" d="m483,308c3.8662,0,7,3.134,7,7s-3.1338,7-7,7-7-3.1338-7-7,3.134-7,7-7Z"/>
          <path class="cls-1" d="m511,308c3.8662,0,7,3.134,7,7s-3.1338,7-7,7-7-3.1338-7-7,3.134-7,7-7Z"/>
          <path class="cls-1" d="m49,322c3.8662,0,7,3.134,7,7s-3.1338,7-7,7-7-3.1338-7-7,3.134-7,7-7Z"/>
          <path class="cls-1" d="m63,322c3.8662,0,7,3.134,7,7s-3.1338,7-7,7-7-3.1338-7-7,3.134-7,7-7Z"/>
          <path class="cls-1" d="m77,322c3.8662,0,7,3.134,7,7s-3.1338,7-7,7-7-3.1338-7-7,3.134-7,7-7Z"/>
          <path class="cls-1" d="m161,322c3.8662,0,7,3.134,7,7s-3.1338,7-7,7-7-3.1338-7-7,3.134-7,7-7Z"/>
          <path class="cls-1" d="m189,322c3.8662,0,7,3.134,7,7s-3.1338,7-7,7-7-3.1338-7-7,3.134-7,7-7Z"/>
          <path class="cls-1" d="m231,322c3.8662,0,7,3.134,7,7s-3.1338,7-7,7-7-3.1338-7-7,3.134-7,7-7Z"/>
          <path class="cls-1" d="m287,322c3.8662,0,7,3.134,7,7s-3.1338,7-7,7-7-3.1338-7-7,3.134-7,7-7Z"/>
          <path class="cls-1" d="m315,322c3.8662,0,7,3.134,7,7s-3.1338,7-7,7-7-3.1338-7-7,3.134-7,7-7Z"/>
          <path class="cls-1" d="m343,322c3.8662,0,7,3.134,7,7s-3.1338,7-7,7-7-3.1338-7-7,3.134-7,7-7Z"/>
          <path class="cls-1" d="m371,322c3.8662,0,7,3.134,7,7s-3.1338,7-7,7-7-3.1338-7-7,3.134-7,7-7Z"/>
          <path class="cls-1" d="m399,322c3.8662,0,7,3.134,7,7s-3.1338,7-7,7-7-3.1338-7-7,3.134-7,7-7Z"/>
          <path class="cls-1" d="m413,322c3.8662,0,7,3.134,7,7s-3.1338,7-7,7-7-3.1338-7-7,3.134-7,7-7Z"/>
          <path class="cls-1" d="m427,322c3.8662,0,7,3.134,7,7s-3.1338,7-7,7-7-3.1338-7-7,3.134-7,7-7Z"/>
          <path class="cls-1" d="m441,322c3.8662,0,7,3.134,7,7s-3.1338,7-7,7-7-3.1338-7-7,3.134-7,7-7Z"/>
          <path class="cls-1" d="m455,322c3.8662,0,7,3.134,7,7s-3.1338,7-7,7-7-3.1338-7-7,3.134-7,7-7Z"/>
          <path class="cls-1" d="m469,322c3.8662,0,7,3.134,7,7s-3.1338,7-7,7-7-3.1338-7-7,3.134-7,7-7Z"/>
          <path class="cls-1" d="m497,322c3.8662,0,7,3.134,7,7s-3.1338,7-7,7-7-3.1338-7-7,3.134-7,7-7Z"/>
          <path class="cls-1" d="m511,322c3.8662,0,7,3.134,7,7s-3.1338,7-7,7-7-3.1338-7-7,3.134-7,7-7Z"/>
          <path class="cls-1" d="m35,336c3.8662,0,7,3.134,7,7s-3.1338,7-7,7-7-3.1338-7-7,3.134-7,7-7Z"/>
          <path class="cls-1" d="m77,336c3.8662,0,7,3.134,7,7s-3.1338,7-7,7-7-3.1338-7-7,3.134-7,7-7Z"/>
          <path class="cls-1" d="m91,336c3.8662,0,7,3.134,7,7s-3.1338,7-7,7-7-3.1338-7-7,3.134-7,7-7Z"/>
          <path class="cls-1" d="m119,336c3.8662,0,7,3.134,7,7s-3.1338,7-7,7-7-3.1338-7-7,3.134-7,7-7Z"/>
          <path class="cls-1" d="m133,336c3.8662,0,7,3.134,7,7s-3.1338,7-7,7-7-3.1338-7-7,3.134-7,7-7Z"/>
          <path class="cls-1" d="m147,336c3.8662,0,7,3.134,7,7s-3.1338,7-7,7-7-3.1338-7-7,3.134-7,7-7Z"/>
          <path class="cls-1" d="m161,336c3.8662,0,7,3.134,7,7s-3.1338,7-7,7-7-3.1338-7-7,3.134-7,7-7Z"/>
          <path class="cls-1" d="m175,336c3.8662,0,7,3.134,7,7s-3.1338,7-7,7-7-3.1338-7-7,3.134-7,7-7Z"/>
          <path class="cls-1" d="m231,336c3.8662,0,7,3.134,7,7s-3.1338,7-7,7-7-3.1338-7-7,3.134-7,7-7Z"/>
          <path class="cls-1" d="m273,336c3.8662,0,7,3.134,7,7s-3.1338,7-7,7-7-3.1338-7-7,3.134-7,7-7Z"/>
          <path class="cls-1" d="m287,336c3.8662,0,7,3.134,7,7s-3.1338,7-7,7-7-3.1338-7-7,3.134-7,7-7Z"/>
          <path class="cls-1" d="m329,336c3.8662,0,7,3.134,7,7s-3.1338,7-7,7-7-3.1338-7-7,3.134-7,7-7Z"/>
          <path class="cls-1" d="m343,336c3.8662,0,7,3.134,7,7s-3.1338,7-7,7-7-3.1338-7-7,3.134-7,7-7Z"/>
          <path class="cls-1" d="m385,336c3.8662,0,7,3.134,7,7s-3.1338,7-7,7-7-3.1338-7-7,3.134-7,7-7Z"/>
          <path class="cls-1" d="m427,336c3.8662,0,7,3.134,7,7s-3.1338,7-7,7-7-3.1338-7-7,3.134-7,7-7Z"/>
          <path class="cls-1" d="m497,336c3.8662,0,7,3.134,7,7s-3.1338,7-7,7-7-3.1338-7-7,3.134-7,7-7Z"/>
          <path class="cls-1" d="m511,336c3.8662,0,7,3.134,7,7s-3.1338,7-7,7-7-3.1338-7-7,3.134-7,7-7Z"/>
          <path class="cls-1" d="m21,350c3.8662,0,7,3.134,7,7s-3.1338,7-7,7-7-3.1338-7-7,3.134-7,7-7Z"/>
          <path class="cls-1" d="m77,350c3.8662,0,7,3.134,7,7s-3.1338,7-7,7-7-3.1338-7-7,3.134-7,7-7Z"/>
          <path class="cls-1" d="m105,350c3.8662,0,7,3.134,7,7s-3.1338,7-7,7-7-3.1338-7-7,3.134-7,7-7Z"/>
          <path class="cls-1" d="m147,350c3.8662,0,7,3.134,7,7s-3.1338,7-7,7-7-3.1338-7-7,3.134-7,7-7Z"/>
          <path class="cls-1" d="m161,350c3.8662,0,7,3.134,7,7s-3.1338,7-7,7-7-3.1338-7-7,3.134-7,7-7Z"/>
          <path class="cls-1" d="m245,350c3.8662,0,7,3.134,7,7s-3.1338,7-7,7-7-3.1338-7-7,3.134-7,7-7Z"/>
          <path class="cls-1" d="m273,350c3.8662,0,7,3.134,7,7s-3.1338,7-7,7-7-3.1338-7-7,3.134-7,7-7Z"/>
          <path class="cls-1" d="m287,350c3.8662,0,7,3.134,7,7s-3.1338,7-7,7-7-3.1338-7-7,3.134-7,7-7Z"/>
          <path class="cls-1" d="m329,350c3.8662,0,7,3.134,7,7s-3.1338,7-7,7-7-3.1338-7-7,3.134-7,7-7Z"/>
          <path class="cls-1" d="m343,350c3.8662,0,7,3.134,7,7s-3.1338,7-7,7-7-3.1338-7-7,3.134-7,7-7Z"/>
          <path class="cls-1" d="m357,350c3.8662,0,7,3.134,7,7s-3.1338,7-7,7-7-3.1338-7-7,3.134-7,7-7Z"/>
          <path class="cls-1" d="m385,350c3.8662,0,7,3.134,7,7s-3.1338,7-7,7-7-3.1338-7-7,3.134-7,7-7Z"/>
          <path class="cls-1" d="m399,350c3.8662,0,7,3.134,7,7s-3.1338,7-7,7-7-3.1338-7-7,3.134-7,7-7Z"/>
          <path class="cls-1" d="m427,350c3.8662,0,7,3.134,7,7s-3.1338,7-7,7-7-3.1338-7-7,3.134-7,7-7Z"/>
          <path class="cls-1" d="m441,350c3.8662,0,7,3.134,7,7s-3.1338,7-7,7-7-3.1338-7-7,3.134-7,7-7Z"/>
          <path class="cls-1" d="m469,350c3.8662,0,7,3.134,7,7s-3.1338,7-7,7-7-3.1338-7-7,3.134-7,7-7Z"/>
          <path class="cls-1" d="m511,350c3.8662,0,7,3.134,7,7s-3.1338,7-7,7-7-3.1338-7-7,3.134-7,7-7Z"/>
          <path class="cls-1" d="m7,364c3.8662,0,7,3.134,7,7s-3.1338,7-7,7-7-3.1338-7-7,3.134-7,7-7Z"/>
          <path class="cls-1" d="m21,364c3.8662,0,7,3.134,7,7s-3.1338,7-7,7-7-3.1338-7-7,3.134-7,7-7Z"/>
          <path class="cls-1" d="m35,364c3.8662,0,7,3.134,7,7s-3.1338,7-7,7-7-3.1338-7-7,3.134-7,7-7Z"/>
          <path class="cls-1" d="m49,364c3.8662,0,7,3.134,7,7s-3.1338,7-7,7-7-3.1338-7-7,3.134-7,7-7Z"/>
          <path class="cls-1" d="m63,364c3.8662,0,7,3.134,7,7s-3.1338,7-7,7-7-3.1338-7-7,3.134-7,7-7Z"/>
          <path class="cls-1" d="m91,364c3.8662,0,7,3.134,7,7s-3.1338,7-7,7-7-3.1338-7-7,3.134-7,7-7Z"/>
          <path class="cls-1" d="m119,364c3.8662,0,7,3.134,7,7s-3.1338,7-7,7-7-3.1338-7-7,3.134-7,7-7Z"/>
          <path class="cls-1" d="m147,364c3.8662,0,7,3.134,7,7s-3.1338,7-7,7-7-3.1338-7-7,3.134-7,7-7Z"/>
          <path class="cls-1" d="m189,364c3.8662,0,7,3.134,7,7s-3.1338,7-7,7-7-3.1338-7-7,3.134-7,7-7Z"/>
          <path class="cls-1" d="m203,364c3.8662,0,7,3.134,7,7s-3.1338,7-7,7-7-3.1338-7-7,3.134-7,7-7Z"/>
          <path class="cls-1" d="m217,364c3.8662,0,7,3.134,7,7s-3.1338,7-7,7-7-3.1338-7-7,3.134-7,7-7Z"/>
          <path class="cls-1" d="m273,364c3.8662,0,7,3.134,7,7s-3.1338,7-7,7-7-3.1338-7-7,3.134-7,7-7Z"/>
          <path class="cls-1" d="m301,364c3.8662,0,7,3.134,7,7s-3.1338,7-7,7-7-3.1338-7-7,3.134-7,7-7Z"/>
          <path class="cls-1" d="m329,364c3.8662,0,7,3.134,7,7s-3.1338,7-7,7-7-3.1338-7-7,3.134-7,7-7Z"/>
          <path class="cls-1" d="m343,364c3.8662,0,7,3.134,7,7s-3.1338,7-7,7-7-3.1338-7-7,3.134-7,7-7Z"/>
          <path class="cls-1" d="m385,364c3.8662,0,7,3.134,7,7s-3.1338,7-7,7-7-3.1338-7-7,3.134-7,7-7Z"/>
          <path class="cls-1" d="m427,364c3.8662,0,7,3.134,7,7s-3.1338,7-7,7-7-3.1338-7-7,3.134-7,7-7Z"/>
          <path class="cls-1" d="m483,364c3.8662,0,7,3.134,7,7s-3.1338,7-7,7-7-3.1338-7-7,3.134-7,7-7Z"/>
          <path class="cls-1" d="m511,364c3.8662,0,7,3.134,7,7s-3.1338,7-7,7-7-3.1338-7-7,3.134-7,7-7Z"/>
          <path class="cls-1" d="m49,378c3.8662,0,7,3.134,7,7s-3.1338,7-7,7-7-3.1338-7-7,3.134-7,7-7Z"/>
          <path class="cls-1" d="m147,378c3.8662,0,7,3.134,7,7s-3.1338,7-7,7-7-3.1338-7-7,3.134-7,7-7Z"/>
          <path class="cls-1" d="m161,378c3.8662,0,7,3.134,7,7s-3.1338,7-7,7-7-3.1338-7-7,3.134-7,7-7Z"/>
          <path class="cls-1" d="m189,378c3.8662,0,7,3.134,7,7s-3.1338,7-7,7-7-3.1338-7-7,3.134-7,7-7Z"/>
          <path class="cls-1" d="m217,378c3.8662,0,7,3.134,7,7s-3.1338,7-7,7-7-3.1338-7-7,3.134-7,7-7Z"/>
          <path class="cls-1" d="m259,378c3.8662,0,7,3.134,7,7s-3.1338,7-7,7-7-3.1338-7-7,3.134-7,7-7Z"/>
          <path class="cls-1" d="m273,378c3.8662,0,7,3.134,7,7s-3.1338,7-7,7-7-3.1338-7-7,3.134-7,7-7Z"/>
          <path class="cls-1" d="m329,378c3.8662,0,7,3.134,7,7s-3.1338,7-7,7-7-3.1338-7-7,3.134-7,7-7Z"/>
          <path class="cls-1" d="m371,378c3.8662,0,7,3.134,7,7s-3.1338,7-7,7-7-3.1338-7-7,3.134-7,7-7Z"/>
          <path class="cls-1" d="m441,378c3.8662,0,7,3.134,7,7s-3.1338,7-7,7-7-3.1338-7-7,3.134-7,7-7Z"/>
          <path class="cls-1" d="m455,378c3.8662,0,7,3.134,7,7s-3.1338,7-7,7-7-3.1338-7-7,3.134-7,7-7Z"/>
          <path class="cls-1" d="m469,378c3.8662,0,7,3.134,7,7s-3.1338,7-7,7-7-3.1338-7-7,3.134-7,7-7Z"/>
          <path class="cls-1" d="m511,378c3.8662,0,7,3.134,7,7s-3.1338,7-7,7-7-3.1338-7-7,3.134-7,7-7Z"/>
          <path class="cls-1" d="m7,392c3.8662,0,7,3.134,7,7s-3.1338,7-7,7-7-3.1338-7-7,3.134-7,7-7Z"/>
          <path class="cls-1" d="m21,392c3.8662,0,7,3.134,7,7s-3.1338,7-7,7-7-3.1338-7-7,3.134-7,7-7Z"/>
          <path class="cls-1" d="m63,392c3.8662,0,7,3.134,7,7s-3.1338,7-7,7-7-3.1338-7-7,3.134-7,7-7Z"/>
          <path class="cls-1" d="m91,392c3.8662,0,7,3.134,7,7s-3.1338,7-7,7-7-3.1338-7-7,3.134-7,7-7Z"/>
          <path class="cls-1" d="m105,392c3.8662,0,7,3.134,7,7s-3.1338,7-7,7-7-3.1338-7-7,3.134-7,7-7Z"/>
          <path class="cls-1" d="m119,392c3.8662,0,7,3.134,7,7s-3.1338,7-7,7-7-3.1338-7-7,3.134-7,7-7Z"/>
          <path class="cls-1" d="m133,392c3.8662,0,7,3.134,7,7s-3.1338,7-7,7-7-3.1338-7-7,3.134-7,7-7Z"/>
          <path class="cls-1" d="m147,392c3.8662,0,7,3.134,7,7s-3.1338,7-7,7-7-3.1338-7-7,3.134-7,7-7Z"/>
          <path class="cls-1" d="m175,392c3.8662,0,7,3.134,7,7s-3.1338,7-7,7-7-3.1338-7-7,3.134-7,7-7Z"/>
          <path class="cls-1" d="m231,392c3.8662,0,7,3.134,7,7s-3.1338,7-7,7-7-3.1338-7-7,3.134-7,7-7Z"/>
          <path class="cls-1" d="m245,392c3.8662,0,7,3.134,7,7s-3.1338,7-7,7-7-3.1338-7-7,3.134-7,7-7Z"/>
          <path class="cls-1" d="m273,392c3.8662,0,7,3.134,7,7s-3.1338,7-7,7-7-3.1338-7-7,3.134-7,7-7Z"/>
          <path class="cls-1" d="m287,392c3.8662,0,7,3.134,7,7s-3.1338,7-7,7-7-3.1338-7-7,3.134-7,7-7Z"/>
          <path class="cls-1" d="m329,392c3.8662,0,7,3.134,7,7s-3.1338,7-7,7-7-3.1338-7-7,3.134-7,7-7Z"/>
          <path class="cls-1" d="m343,392c3.8662,0,7,3.134,7,7s-3.1338,7-7,7-7-3.1338-7-7,3.134-7,7-7Z"/>
          <path class="cls-1" d="m357,392c3.8662,0,7,3.134,7,7s-3.1338,7-7,7-7-3.1338-7-7,3.134-7,7-7Z"/>
          <path class="cls-1" d="m385,392c3.8662,0,7,3.134,7,7s-3.1338,7-7,7-7-3.1338-7-7,3.134-7,7-7Z"/>
          <path class="cls-1" d="m399,392c3.8662,0,7,3.134,7,7s-3.1338,7-7,7-7-3.1338-7-7,3.134-7,7-7Z"/>
          <path class="cls-1" d="m413,392c3.8662,0,7,3.134,7,7s-3.1338,7-7,7-7-3.1338-7-7,3.134-7,7-7Z"/>
          <path class="cls-1" d="m427,392c3.8662,0,7,3.134,7,7s-3.1338,7-7,7-7-3.1338-7-7,3.134-7,7-7Z"/>
          <path class="cls-1" d="m441,392c3.8662,0,7,3.134,7,7s-3.1338,7-7,7-7-3.1338-7-7,3.134-7,7-7Z"/>
          <path class="cls-1" d="m455,392c3.8662,0,7,3.134,7,7s-3.1338,7-7,7-7-3.1338-7-7,3.134-7,7-7Z"/>
          <path class="cls-1" d="m497,392c3.8662,0,7,3.134,7,7s-3.1338,7-7,7-7-3.1338-7-7,3.134-7,7-7Z"/>
          <path class="cls-1" d="m511,392c3.8662,0,7,3.134,7,7s-3.1338,7-7,7-7-3.1338-7-7,3.134-7,7-7Z"/>
          <path class="cls-1" d="m119,406c3.8662,0,7,3.134,7,7s-3.1338,7-7,7-7-3.1338-7-7,3.134-7,7-7Z"/>
          <path class="cls-1" d="m203,406c3.8662,0,7,3.134,7,7s-3.1338,7-7,7-7-3.1338-7-7,3.134-7,7-7Z"/>
          <path class="cls-1" d="m217,406c3.8662,0,7,3.134,7,7s-3.1338,7-7,7-7-3.1338-7-7,3.134-7,7-7Z"/>
          <path class="cls-1" d="m231,406c3.8662,0,7,3.134,7,7s-3.1338,7-7,7-7-3.1338-7-7,3.134-7,7-7Z"/>
          <path class="cls-1" d="m273,406c3.8662,0,7,3.134,7,7s-3.1338,7-7,7-7-3.1338-7-7,3.134-7,7-7Z"/>
          <path class="cls-1" d="m287,406c3.8662,0,7,3.134,7,7s-3.1338,7-7,7-7-3.1338-7-7,3.134-7,7-7Z"/>
          <path class="cls-1" d="m329,406c3.8662,0,7,3.134,7,7s-3.1338,7-7,7-7-3.1338-7-7,3.134-7,7-7Z"/>
          <path class="cls-1" d="m343,406c3.8662,0,7,3.134,7,7s-3.1338,7-7,7-7-3.1338-7-7,3.134-7,7-7Z"/>
          <path class="cls-1" d="m357,406c3.8662,0,7,3.134,7,7s-3.1338,7-7,7-7-3.1338-7-7,3.134-7,7-7Z"/>
          <path class="cls-1" d="m371,406c3.8662,0,7,3.134,7,7s-3.1338,7-7,7-7-3.1338-7-7,3.134-7,7-7Z"/>
          <path class="cls-1" d="m385,406c3.8662,0,7,3.134,7,7s-3.1338,7-7,7-7-3.1338-7-7,3.134-7,7-7Z"/>
          <path class="cls-1" d="m399,406c3.8662,0,7,3.134,7,7s-3.1338,7-7,7-7-3.1338-7-7,3.134-7,7-7Z"/>
          <path class="cls-1" d="m455,406c3.8662,0,7,3.134,7,7s-3.1338,7-7,7-7-3.1338-7-7,3.134-7,7-7Z"/>
          <path class="cls-1" d="m119,420c3.8662,0,7,3.134,7,7s-3.1338,7-7,7-7-3.1338-7-7,3.134-7,7-7Z"/>
          <path class="cls-1" d="m217,420c3.8662,0,7,3.134,7,7s-3.1338,7-7,7-7-3.1338-7-7,3.134-7,7-7Z"/>
          <path class="cls-1" d="m245,420c3.8662,0,7,3.134,7,7s-3.1338,7-7,7-7-3.1338-7-7,3.134-7,7-7Z"/>
          <path class="cls-1" d="m259,420c3.8662,0,7,3.134,7,7s-3.1338,7-7,7-7-3.1338-7-7,3.134-7,7-7Z"/>
          <path class="cls-1" d="m273,420c3.8662,0,7,3.134,7,7s-3.1338,7-7,7-7-3.1338-7-7,3.134-7,7-7Z"/>
          <path class="cls-1" d="m301,420c3.8662,0,7,3.134,7,7s-3.1338,7-7,7-7-3.1338-7-7,3.134-7,7-7Z"/>
          <path class="cls-1" d="m329,420c3.8662,0,7,3.134,7,7s-3.1338,7-7,7-7-3.1338-7-7,3.134-7,7-7Z"/>
          <path class="cls-1" d="m343,420c3.8662,0,7,3.134,7,7s-3.1338,7-7,7-7-3.1338-7-7,3.134-7,7-7Z"/>
          <path class="cls-1" d="m399,420c3.8662,0,7,3.134,7,7s-3.1338,7-7,7-7-3.1338-7-7,3.134-7,7-7Z"/>
          <path class="cls-1" d="m427,420c3.8662,0,7,3.134,7,7s-3.1338,7-7,7-7-3.1338-7-7,3.134-7,7-7Z"/>
          <path class="cls-1" d="m455,420c3.8662,0,7,3.134,7,7s-3.1338,7-7,7-7-3.1338-7-7,3.134-7,7-7Z"/>
          <path class="cls-1" d="m511,420c3.8662,0,7,3.134,7,7s-3.1338,7-7,7-7-3.1338-7-7,3.134-7,7-7Z"/>
          <path class="cls-1" d="m147,434c3.8662,0,7,3.134,7,7s-3.1338,7-7,7-7-3.1338-7-7,3.134-7,7-7Z"/>
          <path class="cls-1" d="m161,434c3.8662,0,7,3.134,7,7s-3.1338,7-7,7-7-3.1338-7-7,3.134-7,7-7Z"/>
          <path class="cls-1" d="m203,434c3.8662,0,7,3.134,7,7s-3.1338,7-7,7-7-3.1338-7-7,3.134-7,7-7Z"/>
          <path class="cls-1" d="m259,434c3.8662,0,7,3.134,7,7s-3.1338,7-7,7-7-3.1338-7-7,3.134-7,7-7Z"/>
          <path class="cls-1" d="m287,434c3.8662,0,7,3.134,7,7s-3.1338,7-7,7-7-3.1338-7-7,3.134-7,7-7Z"/>
          <path class="cls-1" d="m315,434c3.8662,0,7,3.134,7,7s-3.1338,7-7,7-7-3.1338-7-7,3.134-7,7-7Z"/>
          <path class="cls-1" d="m371,434c3.8662,0,7,3.134,7,7s-3.1338,7-7,7-7-3.1338-7-7,3.134-7,7-7Z"/>
          <path class="cls-1" d="m385,434c3.8662,0,7,3.134,7,7s-3.1338,7-7,7-7-3.1338-7-7,3.134-7,7-7Z"/>
          <path class="cls-1" d="m399,434c3.8662,0,7,3.134,7,7s-3.1338,7-7,7-7-3.1338-7-7,3.134-7,7-7Z"/>
          <path class="cls-1" d="m455,434c3.8662,0,7,3.134,7,7s-3.1338,7-7,7-7-3.1338-7-7,3.134-7,7-7Z"/>
          <path class="cls-1" d="m497,434c3.8662,0,7,3.134,7,7s-3.1338,7-7,7-7-3.1338-7-7,3.134-7,7-7Z"/>
          <path class="cls-1" d="m147,448c3.8662,0,7,3.134,7,7s-3.1338,7-7,7-7-3.1338-7-7,3.134-7,7-7Z"/>
          <path class="cls-1" d="m161,448c3.8662,0,7,3.134,7,7s-3.1338,7-7,7-7-3.1338-7-7,3.134-7,7-7Z"/>
          <path class="cls-1" d="m189,448c3.8662,0,7,3.134,7,7s-3.1338,7-7,7-7-3.1338-7-7,3.134-7,7-7Z"/>
          <path class="cls-1" d="m217,448c3.8662,0,7,3.134,7,7s-3.1338,7-7,7-7-3.1338-7-7,3.134-7,7-7Z"/>
          <path class="cls-1" d="m231,448c3.8662,0,7,3.134,7,7s-3.1338,7-7,7-7-3.1338-7-7,3.134-7,7-7Z"/>
          <path class="cls-1" d="m287,448c3.8662,0,7,3.134,7,7s-3.1338,7-7,7-7-3.1338-7-7,3.134-7,7-7Z"/>
          <path class="cls-1" d="m315,448c3.8662,0,7,3.134,7,7s-3.1338,7-7,7-7-3.1338-7-7,3.134-7,7-7Z"/>
          <path class="cls-1" d="m385,448c3.8662,0,7,3.134,7,7s-3.1338,7-7,7-7-3.1338-7-7,3.134-7,7-7Z"/>
          <path class="cls-1" d="m399,448c3.8662,0,7,3.134,7,7s-3.1338,7-7,7-7-3.1338-7-7,3.134-7,7-7Z"/>
          <path class="cls-1" d="m413,448c3.8662,0,7,3.134,7,7s-3.1338,7-7,7-7-3.1338-7-7,3.134-7,7-7Z"/>
          <path class="cls-1" d="m427,448c3.8662,0,7,3.134,7,7s-3.1338,7-7,7-7-3.1338-7-7,3.134-7,7-7Z"/>
          <path class="cls-1" d="m441,448c3.8662,0,7,3.134,7,7s-3.1338,7-7,7-7-3.1338-7-7,3.134-7,7-7Z"/>
          <path class="cls-1" d="m455,448c3.8662,0,7,3.134,7,7s-3.1338,7-7,7-7-3.1338-7-7,3.134-7,7-7Z"/>
          <path class="cls-1" d="m133,462c3.8662,0,7,3.134,7,7s-3.1338,7-7,7-7-3.1338-7-7,3.134-7,7-7Z"/>
          <path class="cls-1" d="m161,462c3.8662,0,7,3.134,7,7s-3.1338,7-7,7-7-3.1338-7-7,3.134-7,7-7Z"/>
          <path class="cls-1" d="m175,462c3.8662,0,7,3.134,7,7s-3.1338,7-7,7-7-3.1338-7-7,3.134-7,7-7Z"/>
          <path class="cls-1" d="m189,462c3.8662,0,7,3.134,7,7s-3.1338,7-7,7-7-3.1338-7-7,3.134-7,7-7Z"/>
          <path class="cls-1" d="m203,462c3.8662,0,7,3.134,7,7s-3.1338,7-7,7-7-3.1338-7-7,3.134-7,7-7Z"/>
          <path class="cls-1" d="m217,462c3.8662,0,7,3.134,7,7s-3.1338,7-7,7-7-3.1338-7-7,3.134-7,7-7Z"/>
          <path class="cls-1" d="m231,462c3.8662,0,7,3.134,7,7s-3.1338,7-7,7-7-3.1338-7-7,3.134-7,7-7Z"/>
          <path class="cls-1" d="m259,462c3.8662,0,7,3.134,7,7s-3.1338,7-7,7-7-3.1338-7-7,3.134-7,7-7Z"/>
          <path class="cls-1" d="m273,462c3.8662,0,7,3.134,7,7s-3.1338,7-7,7-7-3.1338-7-7,3.134-7,7-7Z"/>
          <path class="cls-1" d="m287,462c3.8662,0,7,3.134,7,7s-3.1338,7-7,7-7-3.1338-7-7,3.134-7,7-7Z"/>
          <path class="cls-1" d="m329,462c3.8662,0,7,3.134,7,7s-3.1338,7-7,7-7-3.1338-7-7,3.134-7,7-7Z"/>
          <path class="cls-1" d="m343,462c3.8662,0,7,3.134,7,7s-3.1338,7-7,7-7-3.1338-7-7,3.134-7,7-7Z"/>
          <path class="cls-1" d="m371,462c3.8662,0,7,3.134,7,7s-3.1338,7-7,7-7-3.1338-7-7,3.134-7,7-7Z"/>
          <path class="cls-1" d="m413,462c3.8662,0,7,3.134,7,7s-3.1338,7-7,7-7-3.1338-7-7,3.134-7,7-7Z"/>
          <path class="cls-1" d="m455,462c3.8662,0,7,3.134,7,7s-3.1338,7-7,7-7-3.1338-7-7,3.134-7,7-7Z"/>
          <path class="cls-1" d="m497,462c3.8662,0,7,3.134,7,7s-3.1338,7-7,7-7-3.1338-7-7,3.134-7,7-7Z"/>
          <path class="cls-1" d="m119,476c3.8662,0,7,3.134,7,7s-3.1338,7-7,7-7-3.1338-7-7,3.134-7,7-7Z"/>
          <path class="cls-1" d="m133,476c3.8662,0,7,3.134,7,7s-3.1338,7-7,7-7-3.1338-7-7,3.134-7,7-7Z"/>
          <path class="cls-1" d="m175,476c3.8662,0,7,3.134,7,7s-3.1338,7-7,7-7-3.1338-7-7,3.134-7,7-7Z"/>
          <path class="cls-1" d="m217,476c3.8662,0,7,3.134,7,7s-3.1338,7-7,7-7-3.1338-7-7,3.134-7,7-7Z"/>
          <path class="cls-1" d="m231,476c3.8662,0,7,3.134,7,7s-3.1338,7-7,7-7-3.1338-7-7,3.134-7,7-7Z"/>
          <path class="cls-1" d="m273,476c3.8662,0,7,3.134,7,7s-3.1338,7-7,7-7-3.1338-7-7,3.134-7,7-7Z"/>
          <path class="cls-1" d="m301,476c3.8662,0,7,3.134,7,7s-3.1338,7-7,7-7-3.1338-7-7,3.134-7,7-7Z"/>
          <path class="cls-1" d="m329,476c3.8662,0,7,3.134,7,7s-3.1338,7-7,7-7-3.1338-7-7,3.134-7,7-7Z"/>
          <path class="cls-1" d="m357,476c3.8662,0,7,3.134,7,7s-3.1338,7-7,7-7-3.1338-7-7,3.134-7,7-7Z"/>
          <path class="cls-1" d="m385,476c3.8662,0,7,3.134,7,7s-3.1338,7-7,7-7-3.1338-7-7,3.134-7,7-7Z"/>
          <path class="cls-1" d="m413,476c3.8662,0,7,3.134,7,7s-3.1338,7-7,7-7-3.1338-7-7,3.134-7,7-7Z"/>
          <path class="cls-1" d="m441,476c3.8662,0,7,3.134,7,7s-3.1338,7-7,7-7-3.1338-7-7,3.134-7,7-7Z"/>
          <path class="cls-1" d="m455,476c3.8662,0,7,3.134,7,7s-3.1338,7-7,7-7-3.1338-7-7,3.134-7,7-7Z"/>
          <path class="cls-1" d="m511,476c3.8662,0,7,3.134,7,7s-3.1338,7-7,7-7-3.1338-7-7,3.134-7,7-7Z"/>
          <path class="cls-1" d="m189,490c3.8662,0,7,3.134,7,7s-3.1338,7-7,7-7-3.1338-7-7,3.134-7,7-7Z"/>
          <path class="cls-1" d="m259,490c3.8662,0,7,3.134,7,7s-3.1338,7-7,7-7-3.1338-7-7,3.134-7,7-7Z"/>
          <path class="cls-1" d="m287,490c3.8662,0,7,3.134,7,7s-3.1338,7-7,7-7-3.1338-7-7,3.134-7,7-7Z"/>
          <path class="cls-1" d="m315,490c3.8662,0,7,3.134,7,7s-3.1338,7-7,7-7-3.1338-7-7,3.134-7,7-7Z"/>
          <path class="cls-1" d="m343,490c3.8662,0,7,3.134,7,7s-3.1338,7-7,7-7-3.1338-7-7,3.134-7,7-7Z"/>
          <path class="cls-1" d="m399,490c3.8662,0,7,3.134,7,7s-3.1338,7-7,7-7-3.1338-7-7,3.134-7,7-7Z"/>
          <path class="cls-1" d="m413,490c3.8662,0,7,3.134,7,7s-3.1338,7-7,7-7-3.1338-7-7,3.134-7,7-7Z"/>
          <path class="cls-1" d="m427,490c3.8662,0,7,3.134,7,7s-3.1338,7-7,7-7-3.1338-7-7,3.134-7,7-7Z"/>
          <path class="cls-1" d="m455,490c3.8662,0,7,3.134,7,7s-3.1338,7-7,7-7-3.1338-7-7,3.134-7,7-7Z"/>
          <path class="cls-1" d="m119,504c3.8662,0,7,3.134,7,7s-3.1338,7-7,7-7-3.1338-7-7,3.134-7,7-7Z"/>
          <path class="cls-1" d="m133,504c3.8662,0,7,3.134,7,7s-3.1338,7-7,7-7-3.1338-7-7,3.134-7,7-7Z"/>
          <path class="cls-1" d="m189,504c3.8662,0,7,3.134,7,7s-3.1338,7-7,7-7-3.1338-7-7,3.134-7,7-7Z"/>
          <path class="cls-1" d="m203,504c3.8662,0,7,3.134,7,7s-3.1338,7-7,7-7-3.1338-7-7,3.134-7,7-7Z"/>
          <path class="cls-1" d="m217,504c3.8662,0,7,3.134,7,7s-3.1338,7-7,7-7-3.1338-7-7,3.134-7,7-7Z"/>
          <path class="cls-1" d="m231,504c3.8662,0,7,3.134,7,7s-3.1338,7-7,7-7-3.1338-7-7,3.134-7,7-7Z"/>
          <path class="cls-1" d="m287,504c3.8662,0,7,3.134,7,7s-3.1338,7-7,7-7-3.1338-7-7,3.134-7,7-7Z"/>
          <path class="cls-1" d="m329,504c3.8662,0,7,3.134,7,7s-3.1338,7-7,7-7-3.1338-7-7,3.134-7,7-7Z"/>
          <path class="cls-1" d="m343,504c3.8662,0,7,3.134,7,7s-3.1338,7-7,7-7-3.1338-7-7,3.134-7,7-7Z"/>
          <path class="cls-1" d="m399,504c3.8662,0,7,3.134,7,7s-3.1338,7-7,7-7-3.1338-7-7,3.134-7,7-7Z"/>
          <path class="cls-1" d="m427,504c3.8662,0,7,3.134,7,7s-3.1338,7-7,7-7-3.1338-7-7,3.134-7,7-7Z"/>
          <path class="cls-1" d="m441,504c3.8662,0,7,3.134,7,7s-3.1338,7-7,7-7-3.1338-7-7,3.134-7,7-7Z"/>
          <path class="cls-1" d="m469,504c3.8662,0,7,3.134,7,7s-3.1338,7-7,7-7-3.1338-7-7,3.134-7,7-7Z"/>
          <path class="cls-1" d="m511,504c3.8662,0,7,3.134,7,7s-3.1338,7-7,7-7-3.1338-7-7,3.134-7,7-7Z"/>
          <g>
            <path class="cls-3" d="m49,15.3725c-18.5422,0-33.6275,15.0853-33.6275,33.6275s15.0853,33.6275,33.6275,33.6275,33.6275-15.0853,33.6275-33.6275S67.5422,15.3725,49,15.3725Z"/>
            <path class="cls-1" d="m49,.9608C22.4699.9608.9608,22.4699.9608,49s21.5091,48.0392,48.0392,48.0392,48.0392-21.5091,48.0392-48.0392S75.5301.9608,49,.9608Zm0,81.6667c-18.5422,0-33.6275-15.0853-33.6275-33.6275S30.4578,15.3725,49,15.3725s33.6275,15.0853,33.6275,33.6275-15.0853,33.6275-33.6275,33.6275Z"/>
          </g>
          <g>
            <path class="cls-3" d="m469,15.3725c-18.5422,0-33.6275,15.0853-33.6275,33.6275s15.0853,33.6275,33.6275,33.6275,33.6275-15.0853,33.6275-33.6275-15.0853-33.6275-33.6275-33.6275Z"/>
            <path class="cls-1" d="m469,.9608c-26.5301,0-48.0392,21.5091-48.0392,48.0392s21.5091,48.0392,48.0392,48.0392,48.0392-21.5091,48.0392-48.0392S495.5301.9608,469,.9608Zm0,81.6667c-18.5422,0-33.6275-15.0853-33.6275-33.6275s15.0853-33.6275,33.6275-33.6275,33.6275,15.0853,33.6275,33.6275-15.0853,33.6275-33.6275,33.6275Z"/>
          </g>
          <g>
            <path class="cls-3" d="m49,435.3725c-18.5422,0-33.6275,15.0853-33.6275,33.6275s15.0853,33.6275,33.6275,33.6275,33.6275-15.0853,33.6275-33.6275-15.0853-33.6275-33.6275-33.6275Z"/>
            <path class="cls-1" d="m49,420.9608c-26.5301,0-48.0392,21.5091-48.0392,48.0392s21.5091,48.0392,48.0392,48.0392,48.0392-21.5091,48.0392-48.0392-21.5091-48.0392-48.0392-48.0392Zm0,81.6667c-18.5422,0-33.6275-15.0853-33.6275-33.6275s15.0853-33.6275,33.6275-33.6275,33.6275,15.0853,33.6275,33.6275-15.0853,33.6275-33.6275,33.6275Z"/>
          </g>
          <circle class="cls-1" cx="48.5882" cy="48.5882" r="20.5882"/>
          <circle class="cls-1" cx="468.5882" cy="48.5882" r="20.5882"/>
          <circle class="cls-1" cx="48.5882" cy="468.5882" r="20.5882"/>
        </g>
      </g>
    </mask>
    <linearGradient id="_Безымянный_градиент" data-name="Безымянный градиент" x1="-37.7413" y1="680.4093" x2="-36.7413" y2="680.4093" gradientTransform="translate(-352193.0276 19550) rotate(90) scale(518 -518)" gradientUnits="userSpaceOnUse">
      <stop offset=".05" stop-color="#609beb"/>
      <stop offset=".95" stop-color="#337fe5"/>
    </linearGradient>
  </defs>
  <g class="cls-4">
    <rect class="cls-2" width="518" height="518"/>
  </g>
</svg>